<svg id="Слой_1" xmlns="http://www.w3.org/2000/svg" viewBox="0 0 220.93 61.82" width="220px" height="62"><title>logo2</title><path d="M3.87,13.46H6A3.87,3.87,0,0,1,9.9,17.33V44.92a3.45,3.45,0,0,1-3.45,3.45H3.87A3.87,3.87,0,0,1,0,44.49V17.33a3.87,3.87,0,0,1,3.87-3.87Z" style="fill:#3e9892"/><path d="M58.23,0h2.15a3.87,3.87,0,0,1,3.87,3.87v54.5a3.45,3.45,0,0,1-3.45,3.45H58.23a3.87,3.87,0,0,1-3.87-3.87V3.87A3.87,3.87,0,0,1,58.23,0Z" style="fill:#3e9892"/><path d="M22,0h2.15A3.87,3.87,0,0,1,28,3.87v54.5a3.45,3.45,0,0,1-3.45,3.45H22a3.87,3.87,0,0,1-3.87-3.87V3.87A3.87,3.87,0,0,1,22,0Z" style="fill:#3e9892"/><path d="M76.34,13.46H78.5a3.87,3.87,0,0,1,3.87,3.87V44.92a3.45,3.45,0,0,1-3.45,3.45H76.34a3.87,3.87,0,0,1-3.87-3.87V17.33a3.87,3.87,0,0,1,3.87-3.87Z" style="fill:#3e9892"/><path d="M40.11,15.32h2.15a3.87,3.87,0,0,1,3.87,3.87V46a3.45,3.45,0,0,1-3.45,3.45H40.11a3.87,3.87,0,0,1-3.87-3.87V19.19a3.87,3.87,0,0,1,3.87-3.87Z" style="fill:#3e9892"/><path d="M115,39.6l8.4-18.06a.54.54,0,0,1,.46-.29h.27a.54.54,0,0,1,.45.29l8.4,18.06a.47.47,0,0,1-.45.7h-3c-.49,0-.7-.16-.94-.67l-1-2.12h-7.3l-1,2.15a1,1,0,0,1-1,.64h-3A.48.48,0,0,1,115,39.6Zm11-5.74-2-4.43h0l-2,4.43Z" transform="translate(0)" style="fill:#3e9892"/><path d="M154,21.25a9,9,0,0,1,6.5,2.49.51.51,0,0,1,0,.76l-2.1,2.17a.47.47,0,0,1-.67,0,5.46,5.46,0,0,0-3.62-1.37,5.35,5.35,0,0,0-5.26,5.53,5.32,5.32,0,0,0,5.29,5.45A5.66,5.66,0,0,0,157.78,35a.54.54,0,0,1,.7,0l2.09,2.23a.55.55,0,0,1,0,.73,9.24,9.24,0,0,1-6.53,2.6,9.66,9.66,0,1,1,0-19.32Z" transform="translate(0)" style="fill:#3e9892"/><path d="M176.35,21.68a.52.52,0,0,1,.49-.43h.42a.59.59,0,0,1,.46.27L184,33.11H184l6.23-11.59a.59.59,0,0,1,.45-.27h.43a.52.52,0,0,1,.49.43l3,18a.49.49,0,0,1-.51.59H191a.55.55,0,0,1-.51-.43l-1.21-8.29h0l-4.51,8.69a.61.61,0,0,1-.45.3h-.49a.56.56,0,0,1-.45-.3l-4.54-8.69h-.05l-1.18,8.29a.53.53,0,0,1-.51.43h-3.17a.49.49,0,0,1-.51-.59Z" transform="translate(0)" style="fill:#3e9892"/><path d="M208.8,22a.51.51,0,0,1,.51-.51h11.11a.51.51,0,0,1,.51.51V25a.51.51,0,0,1-.51.51H213v3.33h6.12a.53.53,0,0,1,.51.51v2.92a.51.51,0,0,1-.51.51H213v3.63h7.44a.51.51,0,0,1,.51.51v2.92a.51.51,0,0,1-.51.51H209.31a.51.51,0,0,1-.51-.51Z" transform="translate(0)" style="fill:#3e9892"/></svg>