<?xml version="1.0"?>
<svg xmlns="http://www.w3.org/2000/svg" height="512px" viewBox="0 0 512 512" width="512px" class=""><g><path d="m422 467c0 24.851562 20.148438 45 45 45s45-20.148438 45-45v-226h-90zm0 0" data-original="#000000" class="active-path" data-old_color="#3e9892" fill="#3e9892"/><path d="m75 106h242v60h-242zm0 0" data-original="#000000" class="active-path" data-old_color="#3e9892" fill="#3e9892"/><path d="m256 376h61v30h-61zm0 0" data-original="#000000" class="active-path" data-old_color="#3e9892" fill="#3e9892"/><path d="m60 512h347.382812c-9.519531-12.574219-15.382812-28.050781-15.382812-45v-467h-392v451c0 33 27 61 60 61zm287-76h-121v-90h121zm0-120h-121v-30h121zm0-60h-121v-30h121zm-302-180h302v120h-302zm0 150h151v30h-151zm0 60h151v30h-151zm0 60h151v30h-151zm0 60h151v30h-151zm0 0" data-original="#000000" class="active-path" data-old_color="#3e9892" fill="#3e9892"/></g> </svg>
