<svg height="512pt" viewBox="-22 0 512 512" width="512pt" xmlns="http://www.w3.org/2000/svg"><path d="m15 190.800781h437v304c0 6.800781-5.398438 12.199219-12.199219 12.199219h-412.402343c-6.796876 0-12.199219-5.398438-12.199219-12.199219zm0 0" fill="#e9e9ea"/><path d="m450 91.199219h-20.398438v30.800781c0 5.800781-4.601562 10.398438-10.203124 10.601562-5.597657.199219-10.398438-4.601562-10.597657-10.203124v-.199219-31h-20.800781v30.800781c0 5.800781-4.601562 10.398438-10.199219 10.601562-5.601562.199219-10.402343-4.601562-10.601562-10.203124v-.199219-31h-20.800781v30.800781c0 5.800781-4.597657 10.398438-10.199219 10.601562-5.597657.199219-10.398438-4.601562-10.597657-10.203124v-.199219-31h-185.402343v30.800781c0 5.800781-4.597657 10.398438-10.398438 10.398438s-10.402343-4.597657-10.402343-10.398438v-30.800781h-20.597657v30.800781c0 5.800781-4.601562 10.398438-10.402343 10.398438-5.796876 0-10.398438-4.597657-10.398438-10.398438v-30.800781h-20.800781v30.800781c0 5.800781-4.597657 10.398438-10.398438 10.398438s-10.402343-4.597657-10.402343-10.398438v-30.800781h-19.199219c-6.800781 0-12.199219 5.402343-12.199219 12.199219v75.203124c0 6.796876 5.398438 12.199219 12.199219 12.199219h432.800781c6.800781 0 12.199219-5.402343 12.199219-12.199219v-75.203124c0-6.796876-5.398438-12.199219-12.199219-12.199219zm0 0" fill="#ea4647"/><path d="m191.199219 231h22.402343c5 0 9.199219 4 9.199219 9.199219v22.601562c0 5-4 9.199219-9.199219 9.199219h-22.601562c-5 0-9.199219-4-9.199219-9.199219v-22.601562c.199219-5.199219 4.199219-9.199219 9.398438-9.199219zm0 0" fill="#acdef9"/><path d="m252.398438 231h22.601562c5 0 9.199219 4 9.199219 9.199219v22.601562c0 5-4 9.199219-9.199219 9.199219h-22.601562c-5 0-9.199219-4-9.199219-9.199219v-22.601562c0-5.199219 4.199219-9.199219 9.199219-9.199219zm0 0" fill="#acdef9"/><path d="m313.800781 231h22.597657c5 0 9.203124 4 9.203124 9.199219v22.601562c0 5-4 9.199219-9.203124 9.199219h-22.597657c-5 0-9.199219-4-9.199219-9.199219v-22.601562c0-5.199219 4-9.199219 9.199219-9.199219zm0 0" fill="#acdef9"/><path d="m68.601562 292.199219h22.597657c5 0 9.199219 4 9.199219 9.199219v22.601562c0 5-4 9.199219-9.199219 9.199219h-22.597657c-5 0-9.203124-4-9.203124-9.199219v-22.601562c0-5 4-9.199219 9.203124-9.199219zm0 0" fill="#acdef9"/><path d="m129.800781 292.199219h22.597657c5 0 9.203124 4 9.203124 9.199219v22.601562c0 5-4 9.199219-9.203124 9.199219h-22.597657c-5 0-9.199219-4-9.199219-9.199219v-22.601562c0-5 4.199219-9.199219 9.199219-9.199219zm0 0" fill="#acdef9"/><path d="m191.199219 292.199219h22.402343c5 0 9.199219 4 9.199219 9.199219v22.601562c0 5-4 9.199219-9.199219 9.199219h-22.601562c-5 0-9.199219-4-9.199219-9.199219v-22.601562c.199219-5 4.199219-9.199219 9.398438-9.199219zm0 0" fill="#acdef9"/><path d="m252.398438 292.199219h22.601562c5 0 9.199219 4 9.199219 9.199219v22.601562c0 5-4 9.199219-9.199219 9.199219h-22.601562c-5 0-9.199219-4-9.199219-9.199219v-22.601562c0-5 4.199219-9.199219 9.199219-9.199219zm0 0" fill="#acdef9"/><path d="m313.800781 292.199219h22.597657c5 0 9.203124 4 9.203124 9.199219v22.601562c0 5-4 9.199219-9.203124 9.199219h-22.597657c-5 0-9.199219-4-9.199219-9.199219v-22.601562c0-5 4-9.199219 9.199219-9.199219zm0 0" fill="#acdef9"/><path d="m68.601562 353.601562h22.597657c5 0 9.199219 4 9.199219 9.199219v22.597657c0 5-4 9.203124-9.199219 9.203124h-22.597657c-5 0-9.203124-4-9.203124-9.203124v-22.597657c0-5.199219 4-9.199219 9.203124-9.199219zm0 0" fill="#acdef9"/><path d="m129.800781 353.601562h22.597657c5 0 9.203124 4 9.203124 9.199219v22.597657c0 5-4 9.203124-9.203124 9.203124h-22.597657c-5 0-9.199219-4-9.199219-9.203124v-22.597657c0-5.199219 4.199219-9.199219 9.199219-9.199219zm0 0" fill="#acdef9"/><path d="m191.199219 353.601562h22.402343c5 0 9.199219 4 9.199219 9.199219v22.597657c0 5-4 9.203124-9.199219 9.203124h-22.601562c-5 0-9.199219-4-9.199219-9.203124v-22.597657c.199219-5.199219 4.199219-9.199219 9.398438-9.199219zm0 0" fill="#acdef9"/><path d="m252.398438 353.601562h22.601562c5 0 9.199219 4 9.199219 9.199219v22.597657c0 5-4 9.203124-9.199219 9.203124h-22.601562c-5 0-9.199219-4-9.199219-9.203124v-22.597657c0-5.199219 4.199219-9.199219 9.199219-9.199219zm0 0" fill="#acdef9"/><path d="m313.800781 353.601562h22.597657c5 0 9.203124 4 9.203124 9.199219v22.597657c0 5-4 9.203124-9.203124 9.203124h-22.597657c-5 0-9.199219-4-9.199219-9.203124v-22.597657c0-5.199219 4-9.199219 9.199219-9.199219zm0 0" fill="#acdef9"/><path d="m68.601562 414.800781h22.597657c5 0 9.199219 4 9.199219 9.199219v22.601562c0 5-4 9.199219-9.199219 9.199219h-22.597657c-5 0-9.203124-4-9.203124-9.199219v-22.601562c0-5 4-9.199219 9.203124-9.199219zm0 0" fill="#acdef9"/><path d="m129.800781 414.800781h22.597657c5 0 9.203124 4 9.203124 9.199219v22.601562c0 5-4 9.199219-9.203124 9.199219h-22.597657c-5 0-9.199219-4-9.199219-9.199219v-22.601562c0-5 4.199219-9.199219 9.199219-9.199219zm0 0" fill="#acdef9"/><path d="m191.199219 414.800781h22.402343c5 0 9.199219 4 9.199219 9.199219v22.601562c0 5-4 9.199219-9.199219 9.199219h-22.601562c-5 0-9.199219-4-9.199219-9.199219v-22.601562c.199219-5 4.199219-9.199219 9.398438-9.199219zm0 0" fill="#acdef9"/><path d="m252.398438 414.800781h22.601562c5 0 9.199219 4 9.199219 9.199219v22.601562c0 5-4 9.199219-9.199219 9.199219h-22.601562c-5 0-9.199219-4-9.199219-9.199219v-22.601562c0-5 4.199219-9.199219 9.199219-9.199219zm0 0" fill="#acdef9"/><path d="m375 231h22.601562c5 0 9.199219 4 9.199219 9.199219v22.601562c0 5-4 9.199219-9.199219 9.199219h-22.601562c-5 0-9.199219-4-9.199219-9.199219v-22.601562c0-5.199219 4.199219-9.199219 9.199219-9.199219zm0 0" fill="#acdef9"/><path d="m375 292.199219h22.601562c5 0 9.199219 4 9.199219 9.199219v22.601562c0 5-4 9.199219-9.199219 9.199219h-22.601562c-5 0-9.199219-4-9.199219-9.199219v-22.601562c0-5 4.199219-9.199219 9.199219-9.199219zm0 0" fill="#acdef9"/><path d="m375 353.601562h22.601562c5 0 9.199219 4 9.199219 9.199219v22.597657c0 5-4 9.203124-9.199219 9.203124h-22.601562c-5 0-9.199219-4-9.199219-9.203124v-22.597657c0-5.199219 4.199219-9.199219 9.199219-9.199219zm0 0" fill="#acdef9"/><path d="m46.800781 50c5.800781 0 10.398438 4.601562 10.398438 10.398438v61.601562c0 5.800781-4.597657 10.398438-10.398438 10.398438s-10.402343-4.597657-10.402343-10.398438v-61.800781c0-5.597657 4.601562-10.199219 10.402343-10.199219zm0 0" fill="#e9e9ea"/><path d="m88.398438 50c5.800781 0 10.402343 4.601562 10.402343 10.398438v61.601562c0 5.800781-4.601562 10.398438-10.402343 10.398438-5.796876 0-10.398438-4.597657-10.398438-10.398438v-61.800781c0-5.597657 4.601562-10.199219 10.398438-10.199219zm0 0" fill="#e9e9ea"/><path d="m129.800781 50c5.800781 0 10.398438 4.601562 10.398438 10.398438v61.601562c0 5.800781-4.597657 10.398438-10.398438 10.398438s-10.402343-4.597657-10.402343-10.398438v-61.800781c0-5.597657 4.800781-10.199219 10.402343-10.199219zm0 0" fill="#e9e9ea"/><path d="m336.199219 50c5.800781 0 10.402343 4.601562 10.402343 10.398438v61.601562c0 5.800781-4.601562 10.398438-10.402343 10.398438s-10.398438-4.597657-10.398438-10.398438v-61.800781c0-5.597657 4.597657-10.199219 10.398438-10.199219zm0 0" fill="#e9e9ea"/><path d="m377.800781 50c5.800781 0 10.398438 4.601562 10.398438 10.398438v61.601562c0 5.800781-4.597657 10.398438-10.398438 10.398438s-10.402343-4.597657-10.402343-10.398438v-61.800781c0-5.597657 4.601562-10.199219 10.402343-10.199219zm0 0" fill="#e9e9ea"/><path d="m419.199219 50c5.800781 0 10.402343 4.601562 10.402343 10.398438v61.601562c0 5.800781-4.601562 10.398438-10.402343 10.398438s-10.398438-4.597657-10.398438-10.398438v-61.800781c.199219-5.597657 4.800781-10.199219 10.398438-10.199219zm0 0" fill="#e9e9ea"/><path d="m283.601562 45h-3.601562v-3.601562c0-2.796876-2.199219-5-5-5s-5 2.203124-5 5v3.601562h-3.601562c-2.796876 0-5 2.199219-5 5s2.203124 5 5 5h3.601562v3.601562c0 2.796876 2.199219 5 5 5s5-2.203124 5-5v-3.601562h3.601562c2.796876 0 5-2.199219 5-5s-2.402343-5-5-5zm0 0" fill="#ea4647"/><path d="m191.800781 44c0-.398438-.199219-.601562-.199219-1-.203124-.199219-.203124-.601562-.402343-.800781s-.398438-.597657-.597657-.800781c-2-1.796876-5-1.796876-7 0-.203124.203124-.402343.402343-.601562.800781-.398438.601562-.601562 1.199219-.800781 1.800781s-.199219 1.398438 0 2c0 .398438.199219.601562.199219 1 .203124.398438.203124.601562.402343.800781s.398438.597657.597657.800781c2 2 5 2 7 0 .203124-.203124.402343-.402343.601562-.800781.199219-.199219.398438-.601562.398438-.800781.203124-.199219.203124-.601562.203124-1 .398438-.800781.398438-1.398438.199219-2zm0 0" fill="#55acd5"/><path d="m166.199219 16.398438c-8.199219-1.597657-14.398438-8-16-16 0-.199219-.199219-.398438-.398438-.398438s-.199219.199219-.402343.398438c-1.597657 8.203124-8 14.402343-16 16-.199219 0-.398438.203124-.398438.402343s.199219.199219.398438.398438c8.203124 1.601562 14.402343 8 16 16 0 .199219.203124.402343.402343.402343s.199219-.203124.398438-.402343c1.601562-8.199219 8-14.398438 16-16 .199219 0 .402343-.199219.402343-.398438-.203124-.402343-.203124-.402343-.402343-.402343zm0 0" fill="#ffcd29"/><g fill="#231f20"><path d="m439.800781 512h-412.402343c-9.597657 0-17.199219-7.800781-17.199219-17.199219v-304c0-2.800781 2.199219-5 5-5h437c2.800781 0 5 2.199219 5 5v304c0 9.398438-7.800781 17.199219-17.398438 17.199219zm-419.800781-316.199219v299c0 4 3.199219 7.199219 7.199219 7.199219h412.601562c4 0 7.199219-3.199219 7.199219-7.199219v-299zm0 0"/><path d="m46.800781 137.398438c-8.402343 0-15.402343-6.796876-15.402343-15.398438v-61.800781c0-8.398438 6.800781-15.398438 15.402343-15.398438 8.597657 0 15.398438 6.800781 15.398438 15.398438v61.800781c0 8.398438-7 15.398438-15.398438 15.398438zm0-82.398438c-3 0-5.402343 2.398438-5.402343 5.398438v61.601562c0 3 2.402343 5.398438 5.402343 5.398438s5.398438-2.398438 5.398438-5.398438v-61.800781c0-2.800781-2.398438-5.199219-5.398438-5.199219zm0 0"/><path d="m88.398438 137.398438c-8.398438 0-15.398438-6.796876-15.398438-15.398438v-61.800781c0-8.398438 7-15.398438 15.601562-15.199219 8.398438 0 15.199219 6.800781 15.199219 15.199219v61.800781c0 8.398438-7 15.398438-15.402343 15.398438zm0-82.398438c-3 0-5.398438 2.398438-5.398438 5.398438v61.601562c0 3 2.601562 5.398438 5.398438 5.199219 2.800781 0 5.203124-2.398438 5.203124-5.199219v-61.800781c.199219-2.800781-2.203124-5.199219-5.203124-5.199219zm0 0"/><path d="m129.800781 137.398438c-8.402343 0-15.402343-6.796876-15.402343-15.398438v-61.800781c0-8.398438 6.800781-15.398438 15.402343-15.398438 8.597657 0 15.398438 6.800781 15.398438 15.398438v61.800781c0 8.398438-6.800781 15.398438-15.398438 15.398438zm0-82.398438c-3 0-5.402343 2.398438-5.402343 5.398438v61.601562c0 3 2.402343 5.398438 5.402343 5.398438s5.398438-2.398438 5.398438-5.398438v-61.800781c0-2.800781-2.398438-5.199219-5.398438-5.199219zm0 0"/><path d="m336.199219 137.398438c-8.398438 0-15.398438-6.796876-15.398438-15.398438v-61.800781c0-8.398438 6.800781-15.398438 15.398438-15.398438 8.601562 0 15.402343 6.800781 15.402343 15.398438v61.800781c0 8.398438-6.800781 15.398438-15.402343 15.398438zm0-82.398438c-3 0-5.398438 2.398438-5.398438 5.398438v61.601562c0 3 2.398438 5.398438 5.398438 5.398438s5.402343-2.398438 5.402343-5.398438v-61.800781c0-2.800781-2.402343-5.199219-5.402343-5.199219zm0 0"/><path d="m377.800781 137.398438c-8.402343 0-15.402343-6.796876-15.402343-15.398438v-61.800781c0-8.398438 6.800781-15.398438 15.402343-15.398438 8.597657 0 15.398438 6.800781 15.398438 15.398438v61.800781c0 8.398438-7 15.398438-15.398438 15.398438zm0-82.398438c-3 0-5.402343 2.398438-5.402343 5.398438v61.601562c0 3 2.402343 5.398438 5.402343 5.398438s5.398438-2.398438 5.398438-5.398438v-61.800781c0-2.800781-2.398438-5.199219-5.398438-5.199219zm0 0"/><path d="m419.199219 137.398438c-8.398438 0-15.398438-6.796876-15.398438-15.398438v-61.800781c0-8.398438 6.800781-15.398438 15.398438-15.398438 8.601562 0 15.402343 6.800781 15.402343 15.398438v61.800781c0 8.398438-6.800781 15.398438-15.402343 15.398438zm0-82.398438c-3 0-5.398438 2.398438-5.398438 5.398438v61.601562c0 3 2.398438 5.398438 5.398438 5.398438s5.402343-2.398438 5.402343-5.398438v-61.800781c0-2.800781-2.402343-5.199219-5.402343-5.199219zm0 0"/><path d="m450 195.800781h-432.800781c-9.597657 0-17.199219-7.800781-17.199219-17.199219v-75.203124c0-9.597657 7.800781-17.199219 17.199219-17.199219h19.199219c2.800781 0 5 2.199219 5 5v30.800781c0 3 2.402343 5.398438 5.402343 5.398438s5.398438-2.398438 5.398438-5.398438v-30.800781c0-2.800781 2.199219-5 5-5h20.800781c2.800781 0 5 2.199219 5 5v30.800781c0 3 2.398438 5.398438 5.199219 5.398438 3 0 5.402343-2.398438 5.402343-5.199219v-.199219-30.800781c0-2.800781 2.199219-5 5-5h20.796876c2.800781 0 5 2.199219 5 5v30.800781c0 3 2.402343 5.398438 5.402343 5.398438s5.398438-2.398438 5.398438-5.398438v-30.800781c0-2.800781 2.199219-5 5-5h185.601562c2.800781 0 5 2.199219 5 5v30.800781c0 3 2.398438 5.398438 5.398438 5.398438s5.402343-2.398438 5.402343-5.398438v-30.800781c0-2.800781 2.199219-5 5-5h20.796876c2.800781 0 5 2.199219 5 5v30.800781c0 3 2.402343 5.398438 5.402343 5.398438s5.398438-2.398438 5.398438-5.398438v-30.800781c0-2.800781 2.199219-5 5-5h20.800781c2.800781 0 5 2.199219 5 5v30.800781c0 3 2.398438 5.398438 5.398438 5.398438s5.402343-2.398438 5.402343-5.398438v-30.800781c0-2.800781 2.199219-5 5-5h20.398438c9.601562 0 17.199219 7.800781 17.199219 17.199219v75.203124c-.199219 9.597657-7.796876 17.199219-17.398438 17.199219zm-432.800781-99.601562c-4 0-7.199219 3.199219-7.199219 7.199219v75.203124c0 4 3.199219 7.199219 7.199219 7.199219h432.800781c4 0 7.199219-3.199219 7.199219-7.199219v-75.203124c0-4-3.199219-7.199219-7.199219-7.199219h-15.398438v25.800781c0 8.398438-6.800781 15.398438-15.402343 15.398438-8.597657 0-15.398438-6.796876-15.398438-15.398438v-25.800781h-10.800781v25.800781c0 8.398438-6.800781 15.398438-15.398438 15.398438-8.601562 0-15.402343-6.796876-15.402343-15.398438v-25.800781h-10.597657v25.800781c0 8.398438-6.800781 15.398438-15.402343 15.398438-8.597657 0-15.398438-6.796876-15.398438-15.398438v-25.800781h-175.601562v25.800781c0 8.398438-6.800781 15.398438-15.398438 15.398438-8.601562 0-15.402343-6.796876-15.402343-15.398438v-25.800781h-10.796876v25.800781c0 8.398438-6.800781 15.398438-15.203124 15.601562-8.398438.199219-15.398438-6.800781-15.597657-15.203124 0-.199219 0-.199219 0-.398438v-25.800781h-10.800781v25.800781c0 8.398438-6.800781 15.398438-15.398438 15.398438-8.601562 0-15.402343-6.796876-15.402343-15.398438v-25.800781zm0 0"/><path d="m288.601562 146h-109.800781c-2.800781 0-5-2.199219-5-5s2.199219-5 5-5h109.800781c2.796876 0 5 2.199219 5 5s-2.402343 5-5 5zm0 0"/><path d="m213.601562 276.800781h-22.601562c-7.800781 0-14.199219-6.402343-14.199219-14.199219v-22.601562c0-7.800781 6.398438-14.199219 14.199219-14.199219h22.601562c7.796876 0 14.199219 6.398438 14.199219 14.199219v22.601562c0 7.796876-6.402343 14.199219-14.199219 14.199219zm-22.402343-40.800781c-2.199219 0-4.199219 1.800781-4.199219 4.199219v22.601562c0 2.199219 1.800781 4.199219 4.199219 4.199219h22.402343c2.199219 0 4.199219-1.800781 4.199219-4.199219v-22.601562c0-2.199219-1.800781-4.199219-4.199219-4.199219zm0 0"/><path d="m275 276.800781h-22.601562c-7.796876 0-14.199219-6.402343-14.199219-14.199219v-22.601562c0-7.800781 6.402343-14.199219 14.199219-14.199219h22.601562c7.800781 0 14.199219 6.398438 14.199219 14.199219v22.601562c0 7.796876-6.398438 14.199219-14.199219 14.199219zm-22.601562-40.800781c-2.199219 0-4.199219 1.800781-4.199219 4.199219v22.601562c0 2.199219 1.800781 4.199219 4.199219 4.199219h22.601562c2.199219 0 4.199219-1.800781 4.199219-4.199219v-22.601562c0-2.199219-1.800781-4.199219-4.199219-4.199219zm0 0"/><path d="m336.199219 276.800781h-22.597657c-7.800781 0-14.203124-6.402343-14.203124-14.199219v-22.601562c0-7.800781 6.402343-14.199219 14.203124-14.199219h22.597657c7.800781 0 14.199219 6.398438 14.199219 14.199219v22.601562c0 7.796876-6.398438 14.199219-14.199219 14.199219zm-22.398438-40.800781c-2.199219 0-4.199219 1.800781-4.199219 4.199219v22.601562c0 2.199219 1.796876 4.199219 4.199219 4.199219h22.597657c2.203124 0 4.203124-1.800781 4.203124-4.199219v-22.601562c0-2.199219-1.800781-4.199219-4.203124-4.199219zm0 0"/><path d="m91 338.199219h-22.398438c-7.800781 0-14.203124-6.398438-14.203124-14.199219v-22.601562c0-7.796876 6.402343-14.199219 14.203124-14.199219h22.597657c7.800781 0 14.199219 6.402343 14.199219 14.199219v22.601562c-.199219 7.800781-6.597657 14.199219-14.398438 14.199219zm-22.398438-41c-2.203124 0-4.203124 1.800781-4.203124 4.199219v22.601562c0 2.199219 1.800781 4.199219 4.203124 4.199219h22.597657c2.199219 0 4.199219-1.800781 4.199219-4.199219v-22.601562c0-2.199219-1.796876-4.199219-4.199219-4.199219zm0 0"/><path d="m152.398438 338.199219h-22.597657c-7.800781 0-14.199219-6.398438-14.199219-14.199219v-22.601562c0-7.796876 6.398438-14.199219 14.199219-14.199219h22.597657c7.800781 0 14.203124 6.402343 14.203124 14.199219v22.601562c0 7.800781-6.402343 14.199219-14.203124 14.199219zm-22.597657-41c-2.199219 0-4.199219 1.800781-4.199219 4.199219v22.601562c0 2.199219 1.796876 4.199219 4.199219 4.199219h22.597657c2.203124 0 4.203124-1.800781 4.203124-4.199219v-22.601562c0-2.199219-1.800781-4.199219-4.203124-4.199219zm0 0"/><path d="m213.601562 338.199219h-22.601562c-7.800781 0-14.199219-6.398438-14.199219-14.199219v-22.601562c0-7.796876 6.398438-14.199219 14.199219-14.199219h22.601562c7.796876 0 14.199219 6.402343 14.199219 14.199219v22.601562c0 7.800781-6.402343 14.199219-14.199219 14.199219zm-22.402343-41c-2.199219 0-4.199219 1.800781-4.199219 4.199219v22.601562c0 2.199219 1.800781 4.199219 4.199219 4.199219h22.402343c2.199219 0 4.199219-1.800781 4.199219-4.199219v-22.601562c0-2.199219-1.800781-4.199219-4.199219-4.199219zm0 0"/><path d="m275 338.199219h-22.601562c-7.796876 0-14.199219-6.398438-14.199219-14.199219v-22.601562c0-7.796876 6.402343-14.199219 14.199219-14.199219h22.601562c7.800781 0 14.199219 6.402343 14.199219 14.199219v22.601562c0 7.800781-6.398438 14.199219-14.199219 14.199219zm-22.601562-41c-2.199219 0-4.199219 1.800781-4.199219 4.199219v22.601562c0 2.199219 1.800781 4.199219 4.199219 4.199219h22.601562c2.199219 0 4.199219-1.800781 4.199219-4.199219v-22.601562c0-2.199219-1.800781-4.199219-4.199219-4.199219zm0 0"/><path d="m336.199219 338.199219h-22.597657c-7.800781 0-14.203124-6.398438-14.203124-14.199219v-22.601562c0-7.796876 6.402343-14.199219 14.203124-14.199219h22.597657c7.800781 0 14.199219 6.402343 14.199219 14.199219v22.601562c0 7.800781-6.398438 14.199219-14.199219 14.199219zm-22.398438-41c-2.199219 0-4.199219 1.800781-4.199219 4.199219v22.601562c0 2.199219 1.796876 4.199219 4.199219 4.199219h22.597657c2.203124 0 4.203124-1.800781 4.203124-4.199219v-22.601562c0-2.199219-1.800781-4.199219-4.203124-4.199219zm0 0"/><path d="m91 399.398438h-22.398438c-7.800781 0-14.203124-6.398438-14.203124-14.199219v-22.597657c0-7.800781 6.402343-14.203124 14.203124-14.203124h22.597657c7.800781 0 14.199219 6.402343 14.199219 14.203124v22.597657c-.199219 8-6.597657 14.199219-14.398438 14.199219zm-22.398438-40.796876c-2.203124 0-4.203124 1.796876-4.203124 4.199219v22.597657c0 2.203124 1.800781 4.203124 4.203124 4.203124h22.597657c2.199219 0 4.199219-1.800781 4.199219-4.203124v-22.597657c0-2.199219-1.796876-4.199219-4.199219-4.199219zm0 0"/><path d="m152.398438 399.398438h-22.597657c-7.800781 0-14.199219-6.398438-14.199219-14.199219v-22.597657c0-7.800781 6.398438-14.203124 14.199219-14.203124h22.597657c7.800781 0 14.203124 6.402343 14.203124 14.203124v22.597657c0 8-6.402343 14.199219-14.203124 14.199219zm-22.597657-40.796876c-2.199219 0-4.199219 1.796876-4.199219 4.199219v22.597657c0 2.203124 1.796876 4.203124 4.199219 4.203124h22.597657c2.203124 0 4.203124-1.800781 4.203124-4.203124v-22.597657c0-2.199219-1.800781-4.199219-4.203124-4.199219zm0 0"/><path d="m213.601562 399.398438h-22.601562c-7.800781 0-14.199219-6.398438-14.199219-14.199219v-22.597657c0-7.800781 6.398438-14.203124 14.199219-14.203124h22.601562c7.796876 0 14.199219 6.402343 14.199219 14.203124v22.597657c0 8-6.402343 14.199219-14.199219 14.199219zm-22.402343-40.796876c-2.199219 0-4.199219 1.796876-4.199219 4.199219v22.597657c0 2.203124 1.800781 4.203124 4.199219 4.203124h22.402343c2.199219 0 4.199219-1.800781 4.199219-4.203124v-22.597657c0-2.199219-1.800781-4.199219-4.199219-4.199219zm0 0"/><path d="m275 399.398438h-22.601562c-7.796876 0-14.199219-6.398438-14.199219-14.199219v-22.597657c0-7.800781 6.402343-14.203124 14.199219-14.203124h22.601562c7.800781 0 14.199219 6.402343 14.199219 14.203124v22.597657c0 8-6.398438 14.199219-14.199219 14.199219zm-22.601562-40.796876c-2.199219 0-4.199219 1.796876-4.199219 4.199219v22.597657c0 2.203124 1.800781 4.203124 4.199219 4.203124h22.601562c2.199219 0 4.199219-1.800781 4.199219-4.203124v-22.597657c0-2.199219-1.800781-4.199219-4.199219-4.199219zm0 0"/><path d="m336.199219 399.398438h-22.597657c-7.800781 0-14.203124-6.398438-14.203124-14.199219v-22.597657c0-7.800781 6.402343-14.203124 14.203124-14.203124h22.597657c7.800781 0 14.199219 6.402343 14.199219 14.203124v22.597657c0 8-6.398438 14.199219-14.199219 14.199219zm-22.398438-40.796876c-2.199219 0-4.199219 1.796876-4.199219 4.199219v22.597657c0 2.203124 1.796876 4.203124 4.199219 4.203124h22.597657c2.203124 0 4.203124-1.800781 4.203124-4.203124v-22.597657c0-2.199219-1.800781-4.199219-4.203124-4.199219zm0 0"/><path d="m91 460.800781h-22.398438c-7.800781 0-14.203124-6.402343-14.203124-14.199219v-22.601562c0-7.800781 6.402343-14.199219 14.203124-14.199219h22.597657c7.800781 0 14.199219 6.398438 14.199219 14.199219v22.601562c-.199219 7.796876-6.597657 14.199219-14.398438 14.199219zm-22.398438-41c-2.203124 0-4.203124 1.800781-4.203124 4.199219v22.601562c0 2.199219 1.800781 4.199219 4.203124 4.199219h22.597657c2.199219 0 4.199219-1.800781 4.199219-4.199219v-22.601562c0-2.199219-1.796876-4.199219-4.199219-4.199219zm0 0"/><path d="m152.398438 460.800781h-22.597657c-7.800781 0-14.199219-6.402343-14.199219-14.199219v-22.601562c0-7.800781 6.398438-14.199219 14.199219-14.199219h22.597657c7.800781 0 14.203124 6.398438 14.203124 14.199219v22.601562c0 7.796876-6.402343 14.199219-14.203124 14.199219zm-22.597657-41c-2.199219 0-4.199219 1.800781-4.199219 4.199219v22.601562c0 2.199219 1.796876 4.199219 4.199219 4.199219h22.597657c2.203124 0 4.203124-1.800781 4.203124-4.199219v-22.601562c0-2.199219-1.800781-4.199219-4.203124-4.199219zm0 0"/><path d="m213.601562 460.800781h-22.601562c-7.800781 0-14.199219-6.402343-14.199219-14.199219v-22.601562c0-7.800781 6.398438-14.199219 14.199219-14.199219h22.601562c7.796876 0 14.199219 6.398438 14.199219 14.199219v22.601562c0 7.796876-6.402343 14.199219-14.199219 14.199219zm-22.402343-41c-2.199219 0-4.199219 1.800781-4.199219 4.199219v22.601562c0 2.199219 1.800781 4.199219 4.199219 4.199219h22.402343c2.199219 0 4.199219-1.800781 4.199219-4.199219v-22.601562c0-2.199219-1.800781-4.199219-4.199219-4.199219zm0 0"/><path d="m275 460.800781h-22.601562c-7.796876 0-14.199219-6.402343-14.199219-14.199219v-22.601562c0-7.800781 6.402343-14.199219 14.199219-14.199219h22.601562c7.800781 0 14.199219 6.398438 14.199219 14.199219v22.601562c0 7.796876-6.398438 14.199219-14.199219 14.199219zm-22.601562-41c-2.199219 0-4.199219 1.800781-4.199219 4.199219v22.601562c0 2.199219 1.800781 4.199219 4.199219 4.199219h22.601562c2.199219 0 4.199219-1.800781 4.199219-4.199219v-22.601562c0-2.199219-1.800781-4.199219-4.199219-4.199219zm0 0"/><path d="m397.601562 276.800781h-22.601562c-7.800781 0-14.199219-6.402343-14.199219-14.199219v-22.601562c0-7.800781 6.398438-14.199219 14.199219-14.199219h22.601562c7.796876 0 14.199219 6.398438 14.199219 14.199219v22.601562c0 7.796876-6.402343 14.199219-14.199219 14.199219zm-22.601562-40.800781c-2.199219 0-4.199219 1.800781-4.199219 4.199219v22.601562c0 2.199219 1.800781 4.199219 4.199219 4.199219h22.601562c2.199219 0 4.199219-1.800781 4.199219-4.199219v-22.601562c0-2.199219-1.800781-4.199219-4.199219-4.199219zm0 0"/><path d="m397.601562 338.199219h-22.601562c-7.800781 0-14.199219-6.398438-14.199219-14.199219v-22.601562c0-7.796876 6.398438-14.199219 14.199219-14.199219h22.601562c7.796876 0 14.199219 6.402343 14.199219 14.199219v22.601562c0 7.800781-6.402343 14.199219-14.199219 14.199219zm-22.601562-41c-2.199219 0-4.199219 1.800781-4.199219 4.199219v22.601562c0 2.199219 1.800781 4.199219 4.199219 4.199219h22.601562c2.199219 0 4.199219-1.800781 4.199219-4.199219v-22.601562c0-2.199219-1.800781-4.199219-4.199219-4.199219zm0 0"/><path d="m397.601562 399.398438h-22.601562c-7.800781 0-14.199219-6.398438-14.199219-14.199219v-22.597657c0-7.800781 6.398438-14.203124 14.199219-14.203124h22.601562c7.796876 0 14.199219 6.402343 14.199219 14.203124v22.597657c0 8-6.402343 14.199219-14.199219 14.199219zm-22.601562-40.796876c-2.199219 0-4.199219 1.796876-4.199219 4.199219v22.597657c0 2.203124 1.800781 4.203124 4.199219 4.203124h22.601562c2.199219 0 4.199219-1.800781 4.199219-4.203124v-22.597657c0-2.199219-1.800781-4.199219-4.199219-4.199219zm0 0"/></g></svg>