<?xml version="1.0" encoding="iso-8859-1"?>
<!-- Generator: Adobe Illustrator 19.0.0, SVG Export Plug-In . SVG Version: 6.00 Build 0)  -->
<svg version="1.1" id="Capa_1" xmlns="http://www.w3.org/2000/svg" xmlns:xlink="http://www.w3.org/1999/xlink" x="0px" y="0px"
	 viewBox="0 0 512 512" style="enable-background:new 0 0 512 512;" xml:space="preserve">
<path style="fill:#1DE8F1;" d="M437,210H240V15c0-8.284-6.716-15-15-15s-15,6.716-15,15v195H15c-8.284,0-15,6.716-15,15
	s6.716,15,15,15h195v195c0,8.284,6.716,15,15,15s15-6.716,15-15V240h197c8.284,0,15-6.716,15-15S445.284,210,437,210z"/>
<path style="fill:#1689FC;" d="M225,450c-60.1,0-116.602-23.404-159.099-65.901S0,285.1,0,225S23.404,108.398,65.901,65.901
	S164.9,0,225,0c60.186,0,117.019,23.38,160.029,65.832C428.216,108.458,452,164.985,452,225c0,1.823-0.021,3.641-0.064,5.454
	c-0.099,4.16-1.92,8.092-5.03,10.856c-3.109,2.765-7.228,4.113-11.371,3.723l-0.182-0.017c-3.965-0.373-7.618-2.307-10.156-5.377
	c-2.537-3.069-3.75-7.022-3.37-10.986c0.115-1.207,0.174-2.436,0.174-3.654c0-21.654-19.735-43.813-54.146-60.795
	C329.692,145.372,278.959,135,225,135c-53.81,0-104.163,10.359-141.784,29.17C49.396,181.08,30,203.251,30,225
	s19.396,43.92,53.216,60.83C120.837,304.641,171.19,315,225,315c30.808,0,62.294-3.455,88.656-9.728l6.945,29.185
	C292.03,341.256,258.078,345,225,345c-58.376,0-113.495-11.484-155.201-32.337c-9.585-4.792-18.252-9.975-25.959-15.495
	C72.587,369.068,142.959,420,225,420c41.865,0,82.991-13.01,115.803-36.633l17.529,24.346C320.456,434.982,273.105,450,225,450z
	 M225,105c58.473,0,113.921,11.472,156.131,32.302c10.039,4.954,19.086,10.322,27.094,16.045C379.315,81.174,308.081,30,225,30
	C142.959,30,72.587,80.932,43.84,152.833c7.707-5.52,16.374-10.703,25.959-15.495C111.505,116.484,166.624,105,225,105z"/>
<path style="fill:#1DE8F1;" d="M225,450c-34.024,0-65.157-24.789-87.663-69.799C116.484,338.494,105,283.376,105,225
	s11.484-113.494,32.337-155.201C159.843,24.789,190.976,0,225,0c34.078,0,65.541,24.739,88.592,69.659
	C335.136,111.642,347,166.81,347,225c0,15.311-0.801,30.604-2.379,45.455l-29.832-3.171C316.256,253.482,317,239.256,317,225
	c0-53.516-10.689-103.82-30.099-141.644C269.5,49.448,246.938,30,225,30c-21.749,0-43.92,19.396-60.83,53.216
	C145.359,120.837,135,171.19,135,225s10.359,104.163,29.17,141.784C181.08,400.604,203.251,420,225,420
	c30.822,0,62.457-38.09,78.72-94.781l28.837,8.272c-9.569,33.36-24.04,61.789-41.848,82.215C271.15,438.141,248.428,450,225,450z"/>
<g>
	<path style="fill:#FCBF29;" d="M407.001,512c-5.394,0-10.371-2.895-13.038-7.582L316.41,368.115
		C306.982,352.069,302,333.704,302,315c0-57.897,47.103-105,105-105s105,47.103,105,105c0,17.248-4.278,34.36-12.372,49.486
		c-0.061,0.114-0.123,0.227-0.188,0.339l-79.402,139.591C417.372,509.104,412.394,512,407.001,512z M407,240
		c-41.355,0-75,33.645-75,75c0,13.394,3.568,26.531,10.319,37.991c0.038,0.065,0.075,0.13,0.112,0.195l64.566,113.479
		l66.266-116.496C478.979,339.422,482,327.265,482,315C482,273.645,448.355,240,407,240z"/>
	<path style="fill:#FCBF29;" d="M407,360c-24.813,0-45-20.187-45-45s20.187-45,45-45s45,20.187,45,45S431.813,360,407,360z M407,300
		c-8.271,0-15,6.729-15,15s6.729,15,15,15s15-6.729,15-15S415.271,300,407,300z"/>
</g>
<g>
</g>
<g>
</g>
<g>
</g>
<g>
</g>
<g>
</g>
<g>
</g>
<g>
</g>
<g>
</g>
<g>
</g>
<g>
</g>
<g>
</g>
<g>
</g>
<g>
</g>
<g>
</g>
<g>
</g>
</svg>
