<svg height="512pt" viewBox="-47 0 512 512.15" width="512pt" xmlns="http://www.w3.org/2000/svg"><path d="m60.621094 58.949219 45.800781-32.199219c8-5.601562 19-3.601562 24.601563 4.398438l65.796874 94c5.601563 8 3.601563 19-4.398437 24.601562l-56.601563 40c-8 5.601562-19 3.601562-24.597656-4.398438l-58.199218-83c-10-14.203124-6.601563-33.601562 7.597656-43.402343zm0 0" fill="#acdef9"/><path d="m403.820312 420.550781-65.796874-94c-5.601563-8-16.601563-10-24.601563-4.402343l-57 39.800781c-8 5.601562-10 16.601562-4.398437 24.601562l58.199218 83.199219c9.800782 14 29.199219 17.398438 43.199219 7.601562l46-32.203124c8-5.597657 10-16.597657 4.398437-24.597657zm0 0" fill="#acdef9"/><g fill="#55acd5"><path d="m106.421875 26.949219-10 7 86.199219 123 10-7c8-5.597657 10-16.597657 4.402344-24.597657l-65.800782-94c-5.800781-8.203124-16.800781-10-24.800781-4.402343zm0 0"/><path d="m313.222656 322.148438-10 7 86.199219 123 10-7c8-5.597657 10-16.597657 4.398437-24.597657l-65.796874-94c-5.800782-8-16.800782-10-24.800782-4.402343zm0 0"/><path d="m252.222656 386.949219c-1 .601562-1.800781 1.199219-2.601562 1.800781-27.597656 18-64.597656 10.199219-83.597656-16.800781l-70.402344-100.597657c-19-27-13.597656-64.601562 12.800781-84.402343.800781-.597657 1.800781-1.199219 2.601563-2l-62-88.398438-34.402344 67.398438c-16.199219 39-11.398438 83.800781 12.800781 118.402343l104.800781 149.796876c24.199219 34.601562 64.597656 54.402343 106.800782 52.601562l75.199218-8.800781zm0 0"/></g><path d="m220.023438 49.351562h-3.601563v-3.601562c0-2.800781-2.199219-5-5-5s-5 2.199219-5 5v3.601562h-3.601563c-2.796874 0-5 2.199219-5 5 0 2.796876 2.203126 5 5 5h3.601563v3.597657c0 2.800781 2.199219 5 5 5s5-2.199219 5-5v-3.597657h3.601563c2.796874 0 5-2.203124 5-5 0-2.800781-2.203126-5-5-5zm0 0" fill="#ffcd29"/><path d="m188.820312 3.949219c0-.398438-.199218-.597657-.199218-1-.199219-.199219-.199219-.597657-.398438-.800781-.199218-.199219-.402344-.597657-.601562-.796876-2-1.800781-5-1.800781-7 0-.199219.199219-.398438.398438-.597656.796876-.203126.203124-.402344.601562-.402344.800781-.398438.402343-.398438.601562-.597656 1 0 .402343-.203126.601562-.203126 1 0 .402343 0 .601562.203126 1 0 .402343.199218.601562.199218 1 .199219.402343.199219.601562.398438.800781.199218.199219.402344.601562.601562.800781 2 2 5 2 7 0 .199219-.199219.398438-.402343.597656-.800781.203126-.199219.402344-.601562.402344-.800781.199219-.199219.199219-.597657.199219-1 0-.398438 0-.597657.199219-1 .402344-.398438.402344-.800781.199218-1zm0 0" fill="#ea4647"/><path d="m101.621094 461.148438c0-.398438-.199219-.597657-.199219-1-.199219-.199219-.199219-.597657-.398437-.796876-.203126-.203124-.402344-.601562-.601563-.800781-2-1.800781-5-1.800781-7 0-.199219.199219-.398437.398438-.601563.800781-.398437.597657-.597656 1.199219-.796874 1.796876-.203126.601562-.203126 1.402343 0 2 0 .402343.199218.601562.199218 1 .199219.402343.199219.601562.398438.800781.199218.199219.402344.601562.601562.800781 2 2 5 2 7 0 .199219-.199219.398438-.398438.597656-.800781.203126-.199219.402344-.597657.402344-.800781.199219-.199219.199219-.597657.199219-1 .398437-.597657.398437-1.398438.199219-2zm0 0" fill="#55acd5"/><path d="m274.820312 289.75c0-.398438-.199218-.601562-.199218-1-.199219-.199219-.199219-.601562-.398438-.800781-.199218-.199219-.402344-.597657-.601562-.800781-2-1.796876-5-1.796876-7 0-.199219.203124-.398438.402343-.597656.800781-.402344.601562-.601563 1.199219-.800782 1.800781-.199218.601562-.199218 1.398438 0 2 0 .398438.199219.601562.199219 1 .199219.398438.199219.601562.398437.800781.203126.199219.402344.597657.601563.800781 2 2 5 2 7 0 .199219-.203124.398437-.402343.601563-.800781.199218-.199219.398437-.601562.398437-.800781.199219-.199219.199219-.601562.199219-1 .199218-.800781.199218-1.398438.199218-2zm0 0" fill="#55acd5"/><path d="m149.421875 494.949219c-8.199219-1.597657-14.398437-8-16-16 0-.199219-.199219-.398438-.398437-.398438-.203126 0-.203126.199219-.402344.398438-1.597656 8.199219-8 14.402343-16 16-.199219 0-.398438.199219-.398438.402343 0 .199219.199219.199219.398438.398438 8.199218 1.601562 14.402344 8 16 16 0 .199219.199218.398438.402344.398438.199218 0 .199218-.199219.398437-.398438 1.601563-8.199219 8-14.398438 16-16 .199219 0 .398437-.199219.398437-.398438 0-.402343-.199218-.402343-.398437-.402343zm0 0" fill="#6dcc6d"/><path d="m125.621094 197.949219c-1.398438 0-2.597656-.199219-4-.398438-6-1-11.199219-4.402343-14.597656-9.402343l-58.203126-83c-11.398437-16.398438-7.398437-38.796876 8.800782-50.199219l45.800781-32.199219c10.199219-7.199219 24.398437-4.601562 31.601563 5.601562l65.796874 94c7.203126 10.199219 4.601563 24.398438-5.597656 31.597657l-56.601562 39.800781c-3.800782 2.800781-8.199219 4.199219-13 4.199219zm-9-169.199219c-2.597656 0-5.199219.800781-7.199219 2.199219l-46 32.199219c-11.800781 8.203124-14.601563 24.601562-6.398437 36.402343l58.199218 83c4 5.800781 12 7.199219 17.597656 3.199219l56.800782-39.800781c5.800781-4 7.199218-12 3.199218-17.597657l-65.796874-94c-2.402344-3.601562-6.203126-5.601562-10.402344-5.601562zm76 121.199219"/><path d="m335.820312 487.949219c-11.796874 0-22.796874-5.800781-29.597656-15.398438l-58.199218-83.199219c-7.203126-10.203124-4.601563-24.402343 5.597656-31.601562l56.800781-39.800781c10.199219-7.199219 24.398437-4.597657 31.601563 5.601562l65.796874 94c7.203126 10.199219 4.601563 24.398438-5.597656 31.597657l-45.800781 32.203124c-6 4.398438-13.199219 6.597657-20.601563 6.597657zm-12.398437-164c-2.601563 0-5.199219.800781-7.199219 2.199219l-57 40c-5.800781 4-7.199218 12-3.199218 17.601562l58.199218 83.199219c8.199219 11.800781 24.597656 14.601562 36.398438 6.402343l45.800781-32.203124c5.800781-4 7.199219-12 3.199219-17.597657l-65.800782-94c-2.398437-3.601562-6.398437-5.601562-10.398437-5.601562zm0 0"/><path d="m182.621094 161.949219c-1.597656 0-3.199219-.800781-4.199219-2.199219l-86-123c-1.601563-2.199219-1-5.398438 1.199219-7l10-7c10.199218-7.199219 24.402344-4.601562 31.601562 5.601562l65.800782 94c7.199218 10.199219 4.597656 24.398438-5.601563 31.597657l-10 7c-.800781.601562-1.800781 1-2.800781 1zm-79.199219-126.800781 80.398437 114.800781 6-4.199219c5.800782-4 7.203126-12 3.203126-17.601562l-65.800782-94c-4-5.796876-12-7.199219-17.601562-3.199219zm0 0"/><path d="m389.421875 457.148438c-1.601563 0-3.199219-.796876-4.199219-2.199219l-86-123c-1.601562-2.199219-1-5.398438 1.199219-7l10-7c10.199219-7.199219 24.398437-4.597657 31.601563 5.601562l65.796874 94c7.203126 10.199219 4.601563 24.398438-5.597656 31.597657l-10 7c-.800781.800781-1.800781 1-2.800781 1zm-79.199219-126.796876 80.398438 114.796876 6-4.199219c5.800781-4 7.199218-12 3.199218-17.597657l-65.796874-94c-4-5.800781-12-7.203124-17.601563-3.203124zm3-8.203124"/><path d="m233.421875 489.75c-42 0-81.199219-20.398438-105.199219-54.800781l-104.800781-149.800781c-25.398437-36-30.398437-82.597657-13.398437-123.199219 0-.199219.199218-.199219.199218-.398438l34.398438-67.402343c1.199218-2.398438 4.199218-3.398438 6.800781-2.199219.800781.402343 1.398437 1 1.800781 1.601562l62 88.398438c1.597656 2.199219 1 5.402343-1.199218 7-.800782.601562-1.601563 1.199219-2.402344 1.800781-23.800782 17.800781-29 52.601562-11.597656 77.398438l70.398437 100.601562c17.398437 24.800781 51.800781 31.800781 76.800781 15.601562.800782-.601562 1.597656-1.203124 2.597656-1.800781 2.203126-1.601562 5.402344-1 7 1.199219l62.203126 89c1.597656 2.199219 1 5.398438-1.203126 7-.597656.398438-1.398437.800781-2.199218.800781l-75.199219 8.800781c-.199219 0-.199219 0-.398437 0-2.601563.398438-4.601563.398438-6.601563.398438zm-214.199219-323.800781c-15.601562 37.402343-11 80.199219 12.398438 113.402343l104.800781 149.796876c23.199219 33.203124 61.800781 52.402343 102.398437 50.402343l66.800782-7.800781-54.597656-78c-29.203126 18-69 9.800781-89-19l-70.402344-100.601562c-20.199219-28.796876-14.398438-68.796876 12.601562-90.199219l-54.601562-77.597657zm0 0"/><path d="m290.222656 255.148438c-2.800781 0-5-2.199219-5-5 0-.199219 0-.597657 0-.796876 3.597656-20.402343-10-40-30.601562-43.601562-2.800782-.398438-4.597656-3-4-5.800781.402344-2.800781 3-4.597657 5.800781-4 26 4.601562 43.199219 29.199219 38.601563 55.199219-.203126 2.402343-2.203126 4-4.800782 4zm0 0"/><path d="m330.421875 262.351562c-2.800781 0-5-2.203124-5-5 0-.203124 0-.601562 0-.800781 7.601563-42.601562-21-83.402343-63.601563-90.800781-2.796874-.398438-4.597656-3-4-5.800781.402344-2.597657 3-4.398438 5.800782-4 48 8.402343 80.199218 54.402343 71.800781 102.402343-.398437 2.199219-2.601563 4-5 4zm0 0"/><path d="m370.621094 269.351562c-2.800782 0-5-2.203124-5-5 0-.203124 0-.601562 0-.800781 11.402344-64.800781-31.800782-126.601562-96.597656-138-2.800782-.402343-4.601563-3-4-5.800781.398437-2.601562 3-4.398438 5.796874-4 70.203126 12.398438 117.203126 79.398438 104.800782 149.601562-.597656 2.199219-2.597656 4-5 4zm0 0"/><path d="m410.820312 276.351562c-2.796874 0-5-2.203124-5-5 0-.203124 0-.601562 0-.800781 15.402344-87-42.796874-170-129.796874-185.199219-2.800782-.402343-4.601563-3-4-5.800781.398437-2.601562 3-4.402343 5.796874-4 92.402344 16.398438 154 104.398438 137.800782 196.800781-.398438 2.398438-2.398438 4-4.800782 4zm0 0"/></svg>