<svg xmlns="http://www.w3.org/2000/svg" viewBox="0 0 32 44"><path fill="#D0E0E1" d="M0 4c0-2.2 1.8-4 4-4h17.2L32 10.9l-.2 28.9c0 2.2-1.8 4-4 4H4c-2.2 0-4-1.8-4-4V4z"/><g><path d="M7 28.4c1.2 0 2.1.3 2.8.9.7.6 1 1.6 1 2.8 0 .7-.1 1.2-.2 1.8-.1.5-.4.9-.7 1.3-.3.3-.7.6-1.2.8-.5.2-1 .3-1.7.3H4.3v-7.9H7zm0 6.9h.4c.2 0 .4-.1.6-.1l.6-.3s.4-.3.5-.5c.2-.2.3-.5.4-.9.1-.3.1-.8.1-1.2 0-.5 0-.9-.1-1.3s-.2-.7-.4-1c-.2-.3-.5-.5-.8-.6-.3-.1-.7-.2-1.2-.2H5.3v6.1H7zM11.8 30.7c.2-.5.4-.9.7-1.3.3-.4.7-.7 1.2-.9.5-.2 1-.3 1.6-.3.6 0 1.2.1 1.6.3.5.2.9.5 1.2.9.3.4.6.8.7 1.3.2.5.2 1 .2 1.5s-.1 1-.2 1.5c-.2.5-.4.9-.7 1.3-.3.4-.7.7-1.2.9-.5.2-1 .3-1.6.3-.6 0-1.2-.1-1.6-.3s-.9-.5-1.2-.9c-.3-.4-.6-.8-.7-1.3s-.2-1-.2-1.5 0-1 .2-1.5zm1 2.8c.1.4.3.7.5 1 .2.3.5.6.8.7.3.2.8.3 1.2.3.5 0 .9-.1 1.2-.3.3-.2.6-.4.8-.7.2-.3.4-.7.5-1 .1-.4.2-.8.2-1.2 0-.4-.1-.8-.2-1.2-.1-.4-.3-.7-.5-1-.2-.3-.5-.6-.8-.7-.3-.2-.8-.3-1.2-.3-.5 0-.9.1-1.2.3-.3.2-.6.4-.8.7-.2.3-.4.7-.5 1-.1.4-.2.8-.2 1.2 0 .4.1.8.2 1.2zM25.1 29.5c-.4-.3-.9-.4-1.4-.4-.5 0-.9.1-1.2.3-.3.2-.6.4-.8.7-.2.3-.4.6-.5 1s-.2.7-.2 1.1c0 .4.1.9.2 1.3s.3.7.5 1c.2.3.5.5.8.7.3.2.7.3 1.2.3.3 0 .7-.1.9-.2.3-.1.5-.3.7-.5.2-.2.3-.4.5-.7.1-.3.2-.6.2-.9h1c-.1 1-.4 1.8-1 2.3-.6.6-1.4.8-2.4.8-.6 0-1.1-.1-1.6-.3-.5-.2-.8-.5-1.1-.9-.3-.4-.5-.8-.7-1.3-.2-.5-.2-1-.2-1.6 0-.6.1-1.1.2-1.6.2-.5.4-.9.7-1.3s.7-.7 1.2-.9c.5-.2 1-.3 1.6-.3.4 0 .8.1 1.2.2.4.1.7.3 1 .5.3.2.5.5.7.8.2.3.3.7.4 1.1h-1c-.2-.5-.5-1-.9-1.2z"/></g><path fill="#A1AFAF" d="M21.2.1V11H32L21.2.1z"/></svg>