<svg xmlns="http://www.w3.org/2000/svg" height="512pt" version="1.1" viewBox="0 -40 512.00005 512" width="512pt">
<g id="surface1">
<path d="M 501.484375 157.558594 L 472.824219 157.558594 L 472.824219 56.253906 C 472.824219 50.4375 468.492188 45.46875 462.675781 45.46875 L 261.128906 45.46875 L 217.035156 2.855469 C 215.023438 0.953125 212.378906 0 209.632812 0 L 47.632812 0 C 44.777344 0 42.027344 1.058594 40.019531 3.171875 C 38.007812 5.285156 36.953125 7.824219 37.058594 10.679688 L 42.664062 157.558594 L 10.621094 157.558594 C 7.449219 157.558594 4.488281 159.144531 2.480469 161.574219 C 0.472656 164.007812 -0.375 167.285156 0.15625 170.351562 L 45.199219 422.867188 C 46.152344 427.941406 50.488281 431.539062 55.5625 431.539062 L 456.964844 431.539062 C 462.148438 431.539062 466.480469 427.941406 467.328125 422.867188 L 511.847656 170.457031 C 512.375 167.390625 511.527344 164.007812 509.519531 161.679688 C 507.511719 159.144531 504.550781 157.558594 501.484375 157.558594 Z M 58.628906 21.148438 L 205.402344 21.148438 L 249.496094 63.761719 C 251.507812 65.667969 254.148438 66.617188 256.898438 66.617188 L 451.679688 66.617188 L 451.679688 157.558594 L 432.644531 157.558594 L 432.644531 98.339844 C 432.644531 92.523438 427.886719 87.765625 422.070312 87.765625 L 90.035156 87.765625 C 84.21875 87.765625 79.460938 92.523438 79.460938 98.339844 L 79.460938 157.558594 L 63.917969 157.558594 Z M 411.496094 157.558594 L 100.609375 157.558594 L 100.609375 108.914062 L 411.496094 108.914062 Z M 448.082031 410.285156 L 64.550781 410.285156 L 23.3125 178.707031 L 488.898438 178.707031 Z M 448.082031 410.285156 " style=" stroke:none;fill-rule:nonzero;fill:rgb(0%,0%,0%);fill-opacity:1;" />
<path d="M 310.195312 292.273438 L 266.628906 339.226562 L 266.628906 223.648438 C 266.628906 217.832031 261.867188 213.074219 256.050781 213.074219 C 250.238281 213.074219 245.476562 217.832031 245.476562 223.648438 L 245.476562 339.117188 L 201.910156 292.273438 C 197.894531 288.046875 191.230469 287.726562 187 291.746094 C 182.773438 295.765625 182.453125 302.425781 186.472656 306.65625 L 248.4375 373.167969 C 250.449219 375.285156 253.199219 376.550781 256.15625 376.550781 C 259.117188 376.550781 261.867188 375.285156 263.878906 373.167969 L 325.84375 306.65625 C 329.859375 302.425781 329.542969 295.660156 325.316406 291.746094 C 320.875 287.832031 314.210938 288.046875 310.195312 292.273438 Z M 310.195312 292.273438 " style=" stroke:none;fill-rule:nonzero;fill:rgb(0%,0%,0%);fill-opacity:1;" />
</g>
</svg>