<?xml version="1.0" encoding="iso-8859-1"?>
<!-- Generator: Adobe Illustrator 19.0.0, SVG Export Plug-In . SVG Version: 6.00 Build 0)  -->
<svg version="1.1" id="Capa_1" xmlns="http://www.w3.org/2000/svg" xmlns:xlink="http://www.w3.org/1999/xlink" x="0px" y="0px"
	 viewBox="0 0 384 384" style="enable-background:new 0 0 384 384;" xml:space="preserve">
<g>
	<g>
		<path d="M336,64H169.896l-18.728-37.52C143.064,10.392,126.208,0,108.24,0H48C21.528,0,0,21.528,0,48v264
			c0,26.472,21.528,48,48,48h40c8.832,0,16-7.168,16-16c0-8.832-7.168-16-16-16H48c-8.824,0-16-7.176-16-16V168h272
			c8.832,0,16-7.168,16-16c0-8.832-7.168-16-16-16H32V48c0-8.824,7.176-16,16-16h60.24c6,0,11.632,3.488,14.328,8.824l23.12,46.32
			C148.392,92.568,153.936,96,160,96h176c8.824,0,16,7.176,16,16v200c0,8.824-7.176,16-16,16h-39.504c-8.832,0-16,7.168-16,16
			c0,8.832,7.168,16,16,16H336c26.472,0,48-21.528,48-48V112C384,85.528,362.472,64,336,64z"/>
	</g>
</g>
<g>
	<g>
		<path d="M251.312,308.688c-6.248-6.248-16.376-6.248-22.624,0L208,329.376V216c0-8.832-7.168-16-16-16c-8.832,0-16,7.168-16,16
			v113.376l-20.688-20.688c-6.248-6.248-16.376-6.248-22.624,0c-6.248,6.248-6.248,16.376,0,22.624l48,48
			C183.816,382.44,187.904,384,192,384s8.184-1.56,11.312-4.688l48-48C257.56,325.064,257.56,314.936,251.312,308.688z"/>
	</g>
</g>
<g>
</g>
<g>
</g>
<g>
</g>
<g>
</g>
<g>
</g>
<g>
</g>
<g>
</g>
<g>
</g>
<g>
</g>
<g>
</g>
<g>
</g>
<g>
</g>
<g>
</g>
<g>
</g>
<g>
</g>
</svg>
