<?xml version="1.0"?>
<svg xmlns="http://www.w3.org/2000/svg" xmlns:xlink="http://www.w3.org/1999/xlink" version="1.1" id="Capa_1" x="0px" y="0px" viewBox="0 0 512 512" style="enable-background:new 0 0 512 512;" xml:space="preserve" width="512px" height="512px" class=""><g><g>
	<g>
		<path d="M405.333,42.667h-42.667c-0.656,0-1.225,0.259-1.849,0.372c-4.313-12.579-16.126-21.706-30.151-21.706h-32.219    C288.427,8.042,272.677,0,256,0s-32.427,8.042-42.448,21.333h-32.219c-14.025,0-25.839,9.126-30.151,21.706    c-0.624-0.113-1.193-0.372-1.849-0.372h-42.667C83.135,42.667,64,61.802,64,85.333v384C64,492.865,83.135,512,106.667,512h298.667    C428.865,512,448,492.865,448,469.333v-384C448,61.802,428.865,42.667,405.333,42.667z M192,437.333    c0,5.896-4.771,10.667-10.667,10.667h-42.667c-5.896,0-10.667-4.771-10.667-10.667v-42.667c0-5.896,4.771-10.667,10.667-10.667    h42.667c5.896,0,10.667,4.771,10.667,10.667V437.333z M192,330.667c0,5.896-4.771,10.667-10.667,10.667h-42.667    c-5.896,0-10.667-4.771-10.667-10.667V288c0-5.896,4.771-10.667,10.667-10.667h42.667c5.896,0,10.667,4.771,10.667,10.667V330.667    z M192,224c0,5.896-4.771,10.667-10.667,10.667h-42.667c-5.896,0-10.667-4.771-10.667-10.667v-42.667    c0-5.896,4.771-10.667,10.667-10.667h42.667c5.896,0,10.667,4.771,10.667,10.667V224z M252.875,429.792    c4.167,4.167,4.167,10.917,0,15.083c-2.083,2.083-4.813,3.125-7.542,3.125c-2.729,0-5.458-1.042-7.542-3.125l-3.125-3.125    l-3.125,3.125C229.458,446.958,226.729,448,224,448s-5.458-1.042-7.542-3.125c-4.167-4.167-4.167-10.917,0-15.083l3.125-3.125    l-3.125-3.125c-4.167-4.167-4.167-10.917,0-15.083c4.167-4.167,10.917-4.167,15.083,0l3.125,3.125l3.125-3.125    c4.167-4.167,10.917-4.167,15.083,0c4.167,4.167,4.167,10.917,0,15.083l-3.125,3.125L252.875,429.792z M252.875,323.125    c4.167,4.167,4.167,10.917,0,15.083c-2.083,2.083-4.813,3.125-7.542,3.125c-2.729,0-5.458-1.042-7.542-3.125l-3.125-3.125    l-3.125,3.125c-2.083,2.083-4.813,3.125-7.542,3.125s-5.458-1.042-7.542-3.125c-4.167-4.167-4.167-10.917,0-15.083l3.125-3.125    l-3.125-3.125c-4.167-4.167-4.167-10.917,0-15.083c4.167-4.167,10.917-4.167,15.083,0l3.125,3.125l3.125-3.125    c4.167-4.167,10.917-4.167,15.083,0c4.167,4.167,4.167,10.917,0,15.083L249.75,320L252.875,323.125z M252.875,216.458    c4.167,4.167,4.167,10.917,0,15.083c-2.083,2.083-4.813,3.125-7.542,3.125c-2.729,0-5.458-1.042-7.542-3.125l-3.125-3.125    l-3.125,3.125c-2.083,2.083-4.813,3.125-7.542,3.125s-5.458-1.042-7.542-3.125c-4.167-4.167-4.167-10.917,0-15.083l3.125-3.125    l-3.125-3.125c-4.167-4.167-4.167-10.917,0-15.083c4.167-4.167,10.917-4.167,15.083,0l3.125,3.125l3.125-3.125    c4.167-4.167,10.917-4.167,15.083,0s4.167,10.917,0,15.083l-3.125,3.125L252.875,216.458z M316.875,323.125    c4.167,4.167,4.167,10.917,0,15.083c-2.083,2.083-4.813,3.125-7.542,3.125c-2.729,0-5.458-1.042-7.542-3.125l-3.125-3.125    l-3.125,3.125c-2.083,2.083-4.813,3.125-7.542,3.125s-5.458-1.042-7.542-3.125c-4.167-4.167-4.167-10.917,0-15.083l3.125-3.125    l-3.125-3.125c-4.167-4.167-4.167-10.917,0-15.083c4.167-4.167,10.917-4.167,15.083,0l3.125,3.125l3.125-3.125    c4.167-4.167,10.917-4.167,15.083,0c4.167,4.167,4.167,10.917,0,15.083L313.75,320L316.875,323.125z M316.875,216.458    c4.167,4.167,4.167,10.917,0,15.083c-2.083,2.083-4.813,3.125-7.542,3.125c-2.729,0-5.458-1.042-7.542-3.125l-3.125-3.125    l-3.125,3.125c-2.083,2.083-4.813,3.125-7.542,3.125s-5.458-1.042-7.542-3.125c-4.167-4.167-4.167-10.917,0-15.083l3.125-3.125    l-3.125-3.125c-4.167-4.167-4.167-10.917,0-15.083c4.167-4.167,10.917-4.167,15.083,0l3.125,3.125l3.125-3.125    c4.167-4.167,10.917-4.167,15.083,0s4.167,10.917,0,15.083l-3.125,3.125L316.875,216.458z M320,85.333H192    c-11.76,0-21.333-9.573-21.333-21.333V53.333c0-5.885,4.781-10.667,10.667-10.667h37.917c3.792,0,7.302-2.021,9.219-5.302    c5.844-10.042,16.135-16.031,27.531-16.031s21.688,5.99,27.531,16.031c1.917,3.281,5.427,5.302,9.219,5.302h37.917    c5.885,0,10.667,4.781,10.667,10.667V64C341.333,75.76,331.76,85.333,320,85.333z M380.875,216.458    c4.167,4.167,4.167,10.917,0,15.083c-2.083,2.083-4.813,3.125-7.542,3.125c-2.729,0-5.458-1.042-7.542-3.125l-3.125-3.125    l-3.125,3.125c-2.083,2.083-4.813,3.125-7.542,3.125c-2.729,0-5.458-1.042-7.542-3.125c-4.167-4.167-4.167-10.917,0-15.083    l3.125-3.125l-3.125-3.125c-4.167-4.167-4.167-10.917,0-15.083c4.167-4.167,10.917-4.167,15.083,0l3.125,3.125l3.125-3.125    c4.167-4.167,10.917-4.167,15.083,0c4.167,4.167,4.167,10.917,0,15.083l-3.125,3.125L380.875,216.458z" data-original="#000000" class="active-path" data-old_color="#3e9892" fill="#3e9892"/>
	</g>
</g></g> </svg>
