<?xml version="1.0"?>
<svg xmlns="http://www.w3.org/2000/svg" height="512px" viewBox="0 0 512 512" width="512px"><g><path d="m511.824219 309.785156c0-24.3125-19.789063-44.09375-44.109375-44.09375h-25.792969c-.027344 0-.050781.023438-.050781.050782l.09375 246.207031c0 .027343.023437.050781.050781.050781h69.933594c.027343 0 .050781-.023438.050781-.050781zm0 0" data-original="#000000" class="active-path" data-old_color="#000000" fill="#3E9892"/><path d="m70.066406 265.691406h-29.957031c-21.367187 0-40.109375 20.605469-40.109375 44.09375l.175781 202.164063c0 .027343.019531.050781.050781.050781h69.933594c.027344 0 .050782-.023438.050782-.050781l-.09375-246.207031c0-.027344-.023438-.050782-.050782-.050782zm0 0" data-original="#000000" class="active-path" data-old_color="#000000" fill="#3E9892"/><path d="m274.0625 396.28125h-36.234375c-6.46875 0-11.707031 5.246094-11.699219 11.714844l.101563 103.953125c0 .027343.023437.050781.050781.050781h59.535156c.027344 0 .050782-.023438.050782-.050781l-.105469-103.976563c-.003907-6.457031-5.238281-11.691406-11.699219-11.691406zm0 0" data-original="#000000" class="active-path" data-old_color="#000000" fill="#3E9892"/><path d="m351.964844 0h-192.101563c-32.988281 0-59.828125 26.828125-59.828125 59.804688l.175782 452.144531c0 .027343.023437.050781.050781.050781h95.957031c.027344 0 .050781-.023438.050781-.050781l-.175781-130.667969c0-8.28125 6.71875-15 15.007812-15h89.625c8.285157 0 15.003907 6.71875 15.003907 15l.175781 130.667969c0 .027343.023438.050781.050781.050781h95.957031c.03125 0 .050782-.023438.050782-.050781l-.175782-452.144531c.003907-32.976563-26.835937-59.804688-59.824218-59.804688zm-131.816406 329.921875h-34.039063c-8.101563 0-15.097656-6.226563-15.453125-14.320313-.378906-8.59375 6.476562-15.679687 14.988281-15.679687h34.039063c8.101562 0 15.097656 6.226563 15.453125 14.320313.378906 8.59375-6.476563 15.679687-14.988281 15.679687zm0-60h-34.039063c-8.101563 0-15.097656-6.226563-15.453125-14.320313-.378906-8.59375 6.476562-15.679687 14.988281-15.679687h34.039063c8.101562 0 15.097656 6.226563 15.453125 14.320313.378906 8.59375-6.476563 15.679687-14.988281 15.679687zm0-60h-34.039063c-8.101563 0-15.097656-6.226563-15.453125-14.320313-.378906-8.59375 6.476562-15.679687 14.988281-15.679687h34.039063c8.101562 0 15.097656 6.226563 15.453125 14.320313.378906 8.59375-6.476563 15.679687-14.988281 15.679687zm50.769531-95.730469v7.671875c0 8.511719-7.089844 15.363281-15.683594 14.984375-8.097656-.355468-14.324219-7.351562-14.324219-15.457031v-7.199219c0-.027344-.023437-.050781-.050781-.050781h-7.210937c-8.101563 0-15.097657-6.226563-15.453126-14.320313-.378906-8.59375 6.476563-15.679687 14.988282-15.679687h7.675781c.027344 0 .050781-.019531.050781-.046875v-7.199219c0-8.105469 6.226563-15.101562 14.324219-15.460937 8.59375-.378906 15.683594 6.476562 15.683594 14.988281v7.671875c0 .027344.023437.050781.050781.050781h7.210938c8.101562 0 15.097656 6.222657 15.453124 14.320313.378907 8.59375-6.476562 15.679687-14.988281 15.679687h-7.675781c-.027344-.003906-.050781.019531-.050781.046875zm55.265625 215.730469h-34.035156c-8.105469 0-15.101563-6.226563-15.457032-14.320313-.378906-8.59375 6.476563-15.679687 14.988282-15.679687h34.039062c8.101562 0 15.097656 6.226563 15.453125 14.320313.378906 8.59375-6.476563 15.679687-14.988281 15.679687zm0-60h-34.035156c-8.105469 0-15.101563-6.226563-15.457032-14.320313-.378906-8.59375 6.476563-15.679687 14.988282-15.679687h34.039062c8.101562 0 15.097656 6.226563 15.453125 14.320313.378906 8.59375-6.476563 15.679687-14.988281 15.679687zm0-60h-34.035156c-8.105469 0-15.101563-6.226563-15.457032-14.320313-.378906-8.59375 6.476563-15.679687 14.988282-15.679687h34.039062c8.101562 0 15.097656 6.226563 15.453125 14.320313.378906 8.59375-6.476563 15.679687-14.988281 15.679687zm0 0" data-original="#000000" class="active-path" data-old_color="#000000" fill="#3E9892"/></g> </svg>
