<?xml version="1.0"?>
<svg xmlns="http://www.w3.org/2000/svg" height="512px" viewBox="-46 0 512 512" width="512px"><g><path d="m135 362c24.8125 0 45-20.1875 45-45s-20.1875-45-45-45-45 20.1875-45 45 20.1875 45 45 45zm0 0" data-original="#000000" class="active-path" data-old_color="#000000" fill="#3E9892"/><path d="m90 92h240v30h-240zm0 0" data-original="#000000" class="active-path" data-old_color="#000000" fill="#3E9892"/><path d="m120 390.480469v22.246093l8.289062-4.144531c4.222657-2.109375 9.199219-2.109375 13.421876 0l8.289062 4.144531v-22.246093c-4.847656.992187-9.863281 1.519531-15 1.519531s-10.152344-.527344-15-1.519531zm0 0" data-original="#000000" class="active-path" data-old_color="#000000" fill="#3E9892"/><path d="m411.210938 392h-111.210938v111.210938zm0 0" data-original="#000000" class="active-path" data-old_color="#000000" fill="#3E9892"/><path d="m0 15v482c0 8.289062 6.710938 15 15 15h255v-135c0-8.289062 6.710938-15 15-15h135v-347c0-8.289062-6.710938-15-15-15h-390c-8.289062 0-15 6.710938-15 15zm345 317h-90c-8.289062 0-15-6.710938-15-15s6.710938-15 15-15h90c8.289062 0 15 6.710938 15 15s-6.710938 15-15 15zm0-60h-90c-8.289062 0-15-6.710938-15-15s6.710938-15 15-15h90c8.289062 0 15 6.710938 15 15s-6.710938 15-15 15zm-285-195c0-8.289062 6.710938-15 15-15h270c8.289062 0 15 6.710938 15 15v60c0 8.289062-6.710938 15-15 15h-270c-8.289062 0-15-6.710938-15-15zm15 105h270c8.289062 0 15 6.710938 15 15s-6.710938 15-15 15h-270c-8.289062 0-15-6.710938-15-15s6.710938-15 15-15zm60 60c41.351562 0 75 33.648438 75 75 0 24.402344-11.894531 45.910156-30 59.617188v60.382812c0 5.199219-2.695312 10.019531-7.117188 12.757812-4.332031 2.691407-9.847656 3.015626-14.59375.660157l-23.289062-11.644531-23.289062 11.644531c-4.691407 2.3125-10.195313 2.066406-14.59375-.660157-4.421876-2.738281-7.117188-7.558593-7.117188-12.757812v-60.382812c-18.105469-13.707032-30-35.214844-30-59.617188 0-41.351562 33.648438-75 75-75zm0 0" data-original="#000000" class="active-path" data-old_color="#000000" fill="#3E9892"/></g> </svg>
