<?xml version="1.0"?>
<svg xmlns="http://www.w3.org/2000/svg" xmlns:xlink="http://www.w3.org/1999/xlink" version="1.1" id="Capa_1" x="0px" y="0px" viewBox="0 0 410 410" style="enable-background:new 0 0 410 410;" xml:space="preserve" width="512px" height="512px" class=""><g><g id="XMLID_995_">
	<polygon id="XMLID_996_" style="fill:#3E9892" points="125,340 125,310 205,310 205,280 125,280 125,250 205,250 205,220 125,220    125,190 205,190 205,160 125,160 125,130 205,130 205,100 205,70 205,0 125,0 125,70 56.707,70 55,71.75 55,410 205,410 205,340     " data-original="#DEDDE0" class="" data-old_color="#3e9892"/>
	<polygon id="XMLID_997_" style="fill:#1A7977" points="205,0 205,70 285,70 285,100 205,100 205,130 285,130 285,160 205,160    205,190 285,190 285,220 205,220 205,250 285,250 285,280 205,280 205,310 205,340 205,410 355,410 355,0  " data-original="#CDCDD0" class="" data-old_color="#1a7977"/>
	<rect id="XMLID_998_" x="205" y="70" style="fill:#FFFFFF;" width="80" height="30" data-original="#FFFFFF" class=""/>
	<rect id="XMLID_999_" x="125" y="310" style="fill:#FFFFFF;" width="80" height="30" data-original="#FFFFFF" class=""/>
	<polygon id="XMLID_1000_" style="fill:#FFFFFF;" points="125,160 205,160 285,160 285,130 205,130 125,130  " data-original="#FFFFFF" class=""/>
	<polygon id="XMLID_1001_" style="fill:#FFFFFF;" points="125,220 205,220 285,220 285,190 205,190 125,190  " data-original="#FFFFFF" class=""/>
	<polygon id="XMLID_1002_" style="fill:#FFFFFF;" points="125,280 205,280 285,280 285,250 205,250 125,250  " data-original="#FFFFFF" class=""/>
	<polygon id="XMLID_1003_" style="fill:#2E8884" points="125,0 55,70 56.707,70 125,70  " data-original="#ACABB1" class="active-path" data-old_color="#E1EBEB"/>
</g></g> </svg>
