<svg height="512pt" viewBox="-90 0 512 512" width="512pt" xmlns="http://www.w3.org/2000/svg"><path d="m245.289062 403.800781c-.800781-1.601562-2.402343-2.601562-4.402343-2.601562h-54.199219c-1.800781 4.199219-3.398438 8.199219-4.800781 12.601562-3 8.800781-12.597657 13.597657-21.398438 10.597657-5-1.597657-8.800781-5.597657-10.601562-10.597657-1.398438-4.199219-3-8.402343-4.800781-12.601562h-54.199219c-1.800781 0-3.398438 1-4.398438 2.601562l-48.402343 96.199219c-1.199219 2.398438-.199219 5.199219 2.203124 6.398438.597657.402343 1.398438.601562 2.199219.601562h247c2.597657 0 4.800781-2.199219 4.800781-4.800781 0-.800781-.203124-1.398438-.601562-2.199219zm0 0" fill="#6dcc6d"/><path d="m165.886719 293.199219c-61.800781 0-112-50.199219-112-112s50.199219-112 112-112 112 50.199219 112 112-50.199219 112-112 112zm0-198.597657c-47.800781 0-86.597657 38.796876-86.597657 86.597657s38.796876 86.601562 86.597657 86.601562 86.601562-38.800781 86.601562-86.601562-38.800781-86.597657-86.601562-86.597657zm0 0" fill="#fa7682"/><path d="m165.886719 20.800781c-144.597657 0-215.199219 176.398438-110.597657 276.199219l52 49.601562c19.398438 18.597657 34 41.398438 42.597657 66.796876 3 8.800781 12.601562 13.601562 21.402343 10.601562 5-1.601562 8.796876-5.601562 10.597657-10.601562 8.601562-25.398438 23.199219-48.398438 42.601562-66.796876l52-49.601562c104.597657-99.800781 34-276.199219-110.601562-276.199219zm0 272.398438c-61.800781 0-112-50.199219-112-112s50.199219-112 112-112 112 50.199219 112 112-50.199219 112-112 112zm0 0" fill="#ea4647"/><path d="m46.289062 396.199219h-3.601562v-3.597657c0-2.800781-2.199219-5-5-5s-5 2.199219-5 5v3.597657h-3.601562c-2.796876 0-5 2.199219-5 5s2.203124 5 5 5h3.601562v3.601562c0 2.800781 2.199219 5 5 5s5-2.199219 5-5v-3.601562h3.601562c2.796876 0 5-2.199219 5-5s-2.203124-5-5-5zm0 0" fill="#6dcc6d"/><path d="m331.488281 56c0-.398438-.199219-.601562-.199219-1-.203124-.199219-.203124-.601562-.402343-.800781s-.398438-.597657-.597657-.800781c-2-1.796876-5-1.796876-7 0-.203124.203124-.402343.402343-.601562.800781-.398438.601562-.601562 1.199219-.800781 1.800781s-.199219 1.398438 0 2c0 .398438.199219.601562.199219 1 .203124.398438.203124.601562.402343.800781s.398438.597657.597657.800781c2 2 5 2 7 0 .203124-.203124.402343-.402343.601562-.800781.199219-.199219.398438-.601562.398438-.800781.203124-.199219.203124-.601562.203124-1 .199219-.601562.199219-1.199219.199219-2zm0 0" fill="#ea4647"/><path d="m28.6875 346.601562c0-.402343-.199219-.601562-.199219-1-.199219-.203124-.199219-.601562-.402343-.800781-.199219-.199219-.398438-.601562-.597657-.800781-2-1.800781-5-1.800781-7 0-.199219.199219-.402343.398438-.601562.800781-.398438.597657-.597657 1.199219-.800781 1.800781-.199219.597657-.199219 1.398438 0 2 0 .398438.203124.597657.203124 1 .199219.398438.199219.597657.398438.796876.199219.203124.398438.601562.601562.800781 2 2 5 2 7 0 .199219-.199219.398438-.398438.597657-.800781.199219-.199219.402343-.597657.402343-.796876.199219-.203124.199219-.601562.199219-1 .398438-.601562.398438-1.402343.199219-2zm0 0" fill="#55acd5"/><path d="m269.886719 370.601562c0-.402343-.199219-.601562-.199219-1-.199219-.203124-.199219-.601562-.398438-.800781-.203124-.199219-.402343-.601562-.601562-.800781-2-1.800781-5-1.800781-7 0-.199219.199219-.398438.398438-.601562.800781-.398438.597657-.597657 1.199219-.796876 1.800781-.203124.597657-.203124 1.398438 0 2 0 .398438.199219.597657.199219 1 .199219.398438.199219.597657.398438.796876.199219.203124.402343.601562.601562.800781 2 2 5 2 7 0 .199219-.199219.398438-.398438.597657-.800781.203124-.199219.402343-.597657.402343-.796876.199219-.203124.199219-.601562.199219-1 .398438-.601562.398438-1.402343.199219-2zm0 0" fill="#ffcd29"/><path d="m301.886719 16.398438c-8.199219-1.597657-14.398438-8-16-16 0-.199219-.199219-.398438-.398438-.398438s-.199219.199219-.402343.398438c-1.597657 8.203124-8 14.402343-16 16-.199219 0-.398438.203124-.398438.402343s.199219.199219.398438.398438c8.203124 1.601562 14.402343 8 16 16 0 .199219.203124.402343.402343.402343s.199219-.203124.398438-.402343c1.601562-8.199219 8-14.398438 16-16 .199219 0 .402343-.199219.402343-.398438 0-.402343-.203124-.402343-.402343-.402343zm0 0" fill="#ffcd29"/><path d="m165.886719 298.199219c-64.597657 0-117-52.398438-117-117 0-64.597657 52.402343-117 117-117 64.601562 0 117 52.402343 117 117 0 64.601562-52.398438 117-117 117zm0-224c-59.199219 0-107 48-107 107s48 107 107 107 107-48 107-107-48-107-107-107zm0 198.601562c-50.597657 0-91.597657-41-91.597657-91.601562 0-50.597657 41-91.597657 91.597657-91.597657 50.601562 0 91.601562 41 91.601562 91.597657 0 50.601562-41 91.601562-91.601562 91.601562zm0-173.199219c-45 0-81.597657 36.597657-81.597657 81.597657s36.597657 81.601562 81.597657 81.601562 81.601562-36.601562 81.601562-81.601562-36.601562-81.597657-81.601562-81.597657zm0 0"/><path d="m289.488281 512h-247.199219c-5.402343 0-9.800781-4.398438-9.800781-9.800781 0-1.597657.398438-3 1-4.398438l48.398438-96.199219c1.601562-3.402343 5-5.402343 8.800781-5.402343h54.199219c2 0 3.800781 1.199219 4.601562 3 1.800781 4.402343 3.597657 8.601562 5 12.800781 2.199219 6.199219 8.800781 9.601562 15 7.398438 3.398438-1.199219 6.199219-4 7.398438-7.398438 1.402343-4.199219 3.199219-8.601562 5-12.800781.800781-1.800781 2.601562-3 4.601562-3h54.199219c3.800781 0 7.199219 2 8.800781 5.402343l48.398438 96.199219c2.402343 4.800781.402343 10.800781-4.398438 13.199219-1 .601562-2.601562 1-4 1zm-246.800781-10h246.398438l-48.199219-95.800781h-50.800781c-1.199219 3-2.398438 6.199219-3.398438 9.199219-3.800781 11.402343-16.398438 17.601562-27.800781 13.601562-6.398438-2.199219-11.597657-7.199219-13.597657-13.601562-1-3-2.203124-6-3.402343-9.199219h-51zm198.199219-95.800781"/><path d="m165.886719 430c-9.398438 0-17.800781-6-20.800781-14.800781-8.398438-24.597657-22.597657-46.800781-41.398438-64.800781l-52-49.597657c-50-47.601562-65-117-39.398438-181 25.597657-64 84.597657-104 153.597657-104s127.800781 39.800781 153.402343 103.800781c25.597657 64 10.597657 133.398438-39.402343 181l-52 49.597657c-18.800781 18-33 40.199219-41.398438 64.800781-2.800781 9.199219-11.199219 15-20.601562 15zm0-404.199219c-64.800781 0-120 37.398438-144.199219 97.597657-24.199219 60.203124-10 125.402343 37 170l52 49.601562c20 19 35 42.800781 44 68.800781 2.199219 6.199219 8.800781 9.597657 15 7.398438 3.601562-1.199219 6.199219-4 7.398438-7.398438 8.800781-26.199219 24-49.800781 44-68.800781l52-49.601562c46.800781-44.796876 61-110 37-170s-79.398438-97.597657-144.199219-97.597657zm0 272.398438c-64.597657 0-117-52.398438-117-117 0-64.597657 52.402343-117 117-117 64.601562 0 117 52.402343 117 117 0 64.601562-52.398438 117-117 117zm0-224c-59.199219 0-107 48-107 107s48 107 107 107 107-48 107-107-48-107-107-107zm0 0"/></svg>