<svg height="511pt" viewBox="0 -20 511.93137 511" width="511pt" xmlns="http://www.w3.org/2000/svg"><path d="m329.800781 79.066406c0 40.757813-33.042969 73.800782-73.800781 73.800782s-73.800781-33.042969-73.800781-73.800782c0-40.757812 33.042969-73.800781 73.800781-73.800781s73.800781 33.042969 73.800781 73.800781zm0 0" fill="#ea4647"/><path d="m441 92.265625h-112.199219c-7.199219 40.199219-45.800781 66.800781-85.800781 59.398437-30.199219-5.398437-54-29.199218-59.398438-59.398437h-112.601562c-18.601562 0-33.601562 15-33.601562 33.601563v255.398437c0 18.601563 15 33.601563 33.601562 33.601563h369.800781c18.597657 0 33.597657-15 33.597657-33.601563v-255.398437c0-18.601563-15-33.601563-33.398438-33.601563zm0 0" fill="#55acd5"/><path d="m288.199219 271.664062c-16.199219 17.800782-43.597657 19.203126-61.398438 3-1-1-2-2-3-3l-12.402343-11.597656-166.199219 142.597656c6.402343 7.800782 15.800781 12.203126 25.800781 12.203126h369.800781c10 0 19.597657-4.402344 25.800781-12.203126l-166.203124-142.597656zm0 0" fill="#acdef9"/><path d="m441 92.265625h-112.199219c-7.199219 40.199219-45.800781 66.800781-85.800781 59.398437-30.199219-5.398437-54-29.199218-59.398438-59.398437h-112.601562c-10 0-19.601562 4.398437-25.800781 12.199219l178.601562 167.199218c15.800781 17.402344 45.800781 17 64.398438 0l178.601562-167.199218c-6.402343-7.597656-15.800781-12.199219-25.800781-12.199219zm0 0" fill="#acdef9"/><path d="m22.398438 423.664062h-3.796876v-3.597656c0-2.800781-2.203124-5-5-5-2.800781 0-5 2.199219-5 5v3.597656h-3.601562c-2.800781 0-5 2.203126-5 5 0 2.800782 2.199219 5 5 5h3.601562v3.601563c0 2.800781 2.199219 5 5 5 2.796876 0 5-2.199219 5-5v-3.601563h3.597657c2.800781 0 5-2.199218 5-5 0-2.796874-2-5-4.800781-5zm0 0" fill="#6dcc6d"/><path d="m511.800781 96.867188c0-.402344-.199219-.601563-.199219-1-.203124-.203126-.203124-.601563-.402343-.800782-.199219-.199218-.398438-.601562-.597657-.800781-2-1.800781-5-1.800781-7 0-.203124.199219-.402343.398437-.601562.800781-.398438.597656-.601562 1.199219-.800781 1.800782-.199219.597656-.199219 1.398437 0 2 0 .398437.199219.597656.199219 1 .203124.398437.203124.597656.402343.796874.199219.203126.398438.601563.597657.800782 2 2 5 2 7 0 .203124-.199219.402343-.398438.601562-.800782.199219-.199218.398438-.597656.398438-.796874.203124-.203126.203124-.601563.203124-1 .398438-.601563.398438-1.203126.199219-2zm0 0" fill="#ea4647"/><path d="m150.199219 58.265625c0-.398437-.199219-.601563-.199219-1-.199219-.199219-.199219-.601563-.398438-.800781-.203124-.199219-.402343-.597656-.601562-.800782-2-1.796874-5-1.796874-7 0-.199219.203126-.398438.402344-.601562.800782-.398438.601562-.597657 1.199218-.796876 1.800781-.203124.601563-.203124 1.398437 0 2 0 .398437.199219.601563.199219 1 .199219.398437.199219.601563.398438.800781.199219.199219.402343.597656.601562.800782 2 2 5 2 7 0 .199219-.203126.398438-.402344.597657-.800782.203124-.199218.402343-.601562.402343-.800781.199219-.199219.199219-.601563.199219-1 .398438-.800781.398438-1.398437.199219-2zm0 0" fill="#ffcd29"/><path d="m74.199219 465.066406c0-.402344-.199219-.601562-.199219-1-.199219-.199218-.199219-.601562-.398438-.800781-.203124-.199219-.402343-.601563-.601562-.800781-2-1.800782-5-1.800782-7 0-.199219.199218-.398438.402344-.601562.800781-.398438.601563-.597657 1.199219-.796876 1.800781-.203124.597656-.203124 1.398438 0 2 0 .398438.199219.597656.199219 1 .199219.398438.199219.597656.398438.800782.199219.199218.402343.597656.601562.796874 2 2 5 2 7 0 .199219-.199218.398438-.398437.597657-.796874.203124-.203126.402343-.601563.402343-.800782.199219-.199218.199219-.601562.199219-1 .398438-.601562.398438-1.402344.199219-2zm0 0" fill="#ffcd29"/><path d="m483.199219 51.867188c-8.199219-1.601563-14.398438-8-16-16 0-.203126-.199219-.402344-.398438-.402344s-.199219.199218-.402343.402344c-1.597657 8.199218-8 14.398437-16 16-.199219 0-.398438.199218-.398438.398437s.199219.199219.398438.398437c8.203124 1.601563 14.402343 8 16 16 0 .203126.203124.402344.402343.402344s.199219-.199218.398438-.402344c1.601562-8.199218 8-14.398437 16-16 .199219 0 .402343-.199218.402343-.398437-.203124-.199219-.203124-.398437-.402343-.398437zm0 0" fill="#55acd5"/><path d="m441 419.867188h-370c-11.601562 0-22.398438-5.203126-29.800781-14-1.800781-2.203126-1.398438-5.203126.601562-7l166.199219-142.601563c2-1.601563 4.800781-1.601563 6.601562.199219l12.398438 11.601562c.199219 0 .199219.199219.199219.199219 14.199219 15.800781 38.601562 17 54.199219 2.601563 1-.800782 1.800781-1.800782 2.601562-2.601563 0 0 .199219-.199219.199219-.199219l.199219-.199218 12.402343-11.601563c1.800781-1.800781 4.800781-1.800781 6.597657-.199219l166.203124 142.597656c2 1.800782 2.398438 4.800782.597657 7-6.800781 9.203126-17.800781 14.402344-29.199219 14.203126zm-388.601562-16.800782c5.203124 4.398438 11.800781 6.800782 18.601562 6.800782h369.800781c6.800781 0 13.398438-2.402344 18.597657-6.800782l-158.796876-136.199218-9 8.398437c-18 19.800781-48.601562 21.199219-68.402343 3-1-1-2-2-3-3l-9-8.398437zm235.800781-131.402344"/><path d="m256 158.066406c-43.601562 0-78.800781-35.402344-78.800781-78.800781s35.402343-78.800781 78.800781-78.800781c43.601562 0 78.800781 35.402344 78.800781 78.800781s-35.199219 78.601563-78.800781 78.800781zm0-147.800781c-38 0-68.800781 30.800781-68.800781 68.800781s30.800781 69 68.800781 69 68.800781-30.800781 68.800781-68.800781c0-38.199219-30.800781-69-68.800781-69zm0 0"/><path d="m254.800781 289.664062c-.800781 0-1.601562 0-2.402343 0-12.199219-.398437-23.796876-5.398437-32.199219-14.398437l-178.398438-167c-2-1.800781-2.199219-4.800781-.402343-6.800781 7.402343-8.800782 18.203124-14 29.800781-14h112.199219c2.402343 0 4.402343 1.800781 5 4.199218 6.800781 37.402344 42.601562 62.203126 80 55.402344 28.203124-5.199218 50.402343-27.199218 55.402343-55.402344.398438-2.398437 2.597657-4.199218 5-4.199218h112.199219c11.601562 0 22.398438 5.199218 29.800781 14 1.597657 2 1.398438 5-.402343 6.800781l-178.597657 167.199219c-10.199219 9-23.402343 14.199218-37 14.199218zm-202.402343-185.398437 175 163.601563s.203124.199218.203124.199218c6.597657 7 15.796876 11 25.398438 11.199219 11.800781.601563 23.199219-3.601563 31.800781-11.601563l174.800781-163.597656c-5.203124-4.601562-11.800781-7-18.800781-7h-108.199219c-10 42.398438-52.601562 68.597656-95 58.597656-29-6.796874-51.601562-29.597656-58.601562-58.597656h-108c-6.800781.199219-13.398438 2.800782-18.601562 7.199219zm0 0"/><path d="m441 419.867188h-370c-21.199219 0-38.601562-17.203126-38.601562-38.601563v-255.398437c0-21.203126 17.203124-38.601563 38.601562-38.601563h112.199219c2.402343 0 4.402343 1.800781 5 4.199219 6.800781 37.402344 42.601562 62.199218 80 55.402344 28.199219-5.203126 50.402343-27.203126 55.402343-55.402344.398438-2.398438 2.597657-4.199219 5-4.199219h112.199219c21.199219 0 38.597657 17.199219 38.597657 38.601563v255.398437c0 21.398437-17.199219 38.601563-38.398438 38.601563zm-370-322.601563c-15.800781 0-28.601562 12.800781-28.601562 28.601563v255.398437c0 15.800781 12.800781 28.601563 28.601562 28.601563h369.800781c15.800781 0 28.597657-12.800782 28.597657-28.601563v-255.398437c0-15.800782-12.796876-28.601563-28.597657-28.601563h-108.199219c-10 42.398437-52.601562 68.601563-95 58.601563-29-6.800782-51.601562-29.601563-58.601562-58.601563zm0 0"/><path d="m256 133.265625c-.199219 0-.601562 0-.800781 0-30-.199219-54-24.601563-53.800781-54.601563.203124-30 24.601562-54 54.601562-53.796874 25.800781 0 47.800781 18.199218 53.199219 43.199218 1 5.199219 1.199219 10.398438.800781 15.597656l-1 12c-.800781 10-9.800781 17.601563-20 16.601563-9.398438-.800781-16.800781-8.800781-16.800781-18.199219v-15c0-2.800781 2.199219-5 5-5s5 2.199219 5 5v15c0 4.597656 3.800781 8.398438 8.402343 8.398438 4.398438 0 8-3.398438 8.398438-7.597656l1-12c.398438-4.203126.199219-8.601563-.601562-12.800782-5-24-28.398438-39.402344-52.199219-34.402344-20 4.203126-34.597657 21.402344-35.199219 41.800782-.800781 24.402344 18.199219 44.800781 42.601562 45.800781 6 .199219 11.796876-.800781 17.398438-2.800781 2.601562-1 5.398438.402344 6.398438 2.800781 1 2.601563-.398438 5.398437-2.796876 6.398437-6.402343 2.402344-12.800781 3.601563-19.601562 3.601563zm0 0"/><path d="m251.398438 107.867188c-1.597657 0-3.398438-.203126-5-.402344-14-2.597656-24-14.800782-23.796876-29 .199219-14.597656 11.597657-25.800782 28.199219-28.199219h.199219l20.398438-2c5.402343-.601563 10.203124 3.398437 10.800781 8.800781v1 21c-.199219 8.199219-4 16-10.398438 21.398438-5.601562 4.800781-13 7.402344-20.402343 7.402344zm.601562-47.601563c-9.199219 1.398437-19.199219 7-19.398438 18.601563-.203124 9.199218 6.398438 17.199218 15.398438 19 6.199219 1 12.601562-.800782 17.398438-4.800782 4.203124-3.402344 6.601562-8.402344 6.800781-13.601562v-21.199219zm20.199219-2.199219"/></svg>