<?xml version="1.0"?>
<svg xmlns="http://www.w3.org/2000/svg" height="512px" viewBox="-38 0 512 512" width="512px" class=""><g><path d="m218.058594 512c-78.242188 0-141.898438-63.332031-141.898438-141.179688 0-28.894531 8.574219-56.296874 24.5625-79.5 8.382813-12.167968 25.796875-13.875 36.195313-3.378906 35.664062 35.996094 90.417969 57.597656 148.851562 57.597656 15.570313 0 30.902344-1.492187 45.8125-4.457031 14.09375-2.804687 27.367188 7.59375 28.160157 21.941407.144531 2.59375.214843 5.195312.214843 7.800781 0 77.84375-63.65625 141.175781-141.898437 141.175781zm0 0" data-original="#000000" class="active-path" data-old_color="#000000"/><path d="m391.070312 152.597656c-.96875 3.039063-1.933593 6.058594-2.90625 9.023438-8.84375 27.03125-33.835937 45.191406-62.191406 45.191406-.003906 0-.003906 0-.003906 0-6.375 0-12.714844-.9375-18.839844-2.792969-28.871094-8.738281-58.945312-13.195312-89.386718-13.246093-30.441407.050781-60.515626 4.507812-89.386719 13.246093-6.128907 1.855469-12.464844 2.792969-18.839844 2.792969-28.359375 0-53.355469-18.160156-62.195313-45.191406-.914062-2.792969-1.824218-5.632813-2.734374-8.492188-27.773438 32.0625-44.585938 73.785156-44.585938 119.339844v186.074219c0 8.246093 6.714844 14.929687 15 14.929687h65.582031c-21.605469-28.621094-34.421875-64.171875-34.421875-102.652344 0-34.792968 10.320313-68.167968 29.855469-96.523437 10.039063-14.570313 26.597656-23.269531 44.296875-23.269531 14.351562 0 27.816406 5.609375 37.914062 15.800781 30.222657 30.5 77.902344 48.710937 127.542969 48.710937 13.550781 0 26.996094-1.304687 39.960938-3.882812 3.449219-.6875 6.972656-1.035156 10.472656-1.035156 28.425781 0 51.921875 22.292968 53.492187 50.75.175782 3.121094.261719 6.300781.261719 9.449218 0 38.480469-12.820312 74.03125-34.421875 102.652344h65.582032c8.28125 0 15-6.6875 15-14.933594v-186.070312c0-45.808594-17-87.738281-45.046876-119.871094zm0 0" data-original="#000000" class="active-path" data-old_color="#000000"/><path d="m363.113281 23.011719c-46.84375-15.207031-95.527343-22.933594-145.1875-23.011719h-.175781l-.015625.0234375v-.0234375h-.175781c-49.660156.078125-98.34375 7.804688-145.1875 23.011719-18.710938 6.074219-28.992188 26.171875-22.839844 44.863281 4.53125 13.757812 9.046875 28.621094 13.480469 43.226562 4.21875 13.882813 8.507812 28.011719 12.820312 41.191407 5.972657 18.265625 25.441407 28.578125 43.832031 23.011719 31.734376-9.601563 64.589844-14.476563 98.070313-14.53125v-.023438l.011719.023438c33.480468.054687 66.335937 4.929687 98.070312 14.53125 18.390625 5.566406 37.859375-4.746094 43.832032-23.011719 4.3125-13.179688 8.605468-27.308594 12.820312-41.191407 4.4375-14.601562 8.953125-29.46875 13.480469-43.226562 6.15625-18.691406-4.121094-38.789062-22.835938-44.863281zm-124.425781 75.179687h-5.628906v5.601563c0 8.246093-6.71875 14.933593-15 14.933593-8.285156 0-15-6.6875-15-14.933593v-5.601563h-5.632813c-8.28125 0-15-6.6875-15-14.933594 0-8.246093 6.71875-14.929687 15-14.929687h5.632813v-5.605469c0-8.246094 6.714844-14.929687 15-14.929687 8.28125 0 15 6.683593 15 14.929687v5.605469h5.628906c8.285156 0 15 6.683594 15 14.929687 0 8.25-6.714844 14.933594-15 14.933594zm0 0" data-original="#000000" class="active-path" data-old_color="#000000"/></g> </svg>
