<?xml version="1.0"?>
<svg xmlns="http://www.w3.org/2000/svg" height="512px" viewBox="-70 0 512 512" width="512px"><g><path d="m356.074219 66.867188h-76.671875v40.769531c0 24.8125-20.1875 45-45 45h-97.726563c-24.8125 0-45-20.1875-45-45v-40.769531h-76.675781c-8.285156 0-15 6.714843-15 15v415.132812c0 8.285156 6.714844 15 15 15h341.074219c8.285156 0 15-6.714844 15-15v-415.132812c0-8.285157-6.714844-15-15-15zm-109.011719 396.21875h-123.050781c-8.285157 0-15-6.71875-15-15 0-8.285157 6.714843-15 15-15h123.054687c8.28125 0 15 6.714843 15 15 0 8.28125-6.71875 15-15.003906 15zm0-56.148438h-123.050781c-8.285157 0-15-6.714844-15-15 0-8.28125 6.714843-15 15-15h123.054687c8.28125 0 15 6.71875 15 15 0 8.285156-6.71875 15-15.003906 15zm19.992188-114.6875c0 8.28125-6.71875 15-15 15h-28.546876v28.546875c0 8.28125-6.71875 15-15 15h-45.9375c-8.285156 0-15-6.71875-15-15v-28.546875h-28.546874c-8.285157 0-15-6.71875-15-15v-45.9375c0-8.285156 6.714843-15 15-15h28.546874v-28.546875c0-8.285156 6.714844-15 15-15h45.9375c8.28125 0 15 6.714844 15 15v28.546875h28.546876c8.28125 0 15 6.714844 15 15zm0 0" data-original="#000000" class="active-path" data-old_color="#3e9892" fill="#3e9892"/><path d="m193.507812 246.3125v-28.546875h-15.9375v28.546875c0 8.285156-6.714843 15-15 15h-28.546874v15.9375h28.546874c8.285157 0 15 6.714844 15 15v28.546875h15.9375v-28.546875c0-8.285156 6.714844-15 15-15h28.546876v-15.9375h-28.546876c-8.285156 0-15-6.714844-15-15zm0 0" data-original="#000000" class="active-path" data-old_color="#3e9892" fill="#3e9892"/><path d="m234.402344 41.097656h-9.355469v-1.636718c0-21.761719-17.699219-39.460938-39.457031-39.460938h-.101563c-21.757812 0-39.460937 17.699219-39.460937 39.460938v1.636718h-9.351563c-8.285156 0-15 6.714844-15 15v51.539063c0 8.285156 6.714844 15 15 15h97.726563c8.28125 0 15-6.714844 15-15v-51.539063c0-8.285156-6.71875-15-15-15zm-58.375-1.636718c0-5.21875 4.242187-9.460938 9.460937-9.460938h.101563c5.214844 0 9.457031 4.242188 9.457031 9.460938v1.636718h-19.019531zm0 0" data-original="#000000" class="active-path" data-old_color="#3e9892" fill="#3e9892"/></g> </svg>
