<?xml version="1.0"?>
<svg xmlns="http://www.w3.org/2000/svg" xmlns:xlink="http://www.w3.org/1999/xlink" version="1.1" id="Capa_1" x="0px" y="0px" viewBox="0 0 357.002 357.002" style="enable-background:new 0 0 357.002 357.002;" xml:space="preserve" width="512px" height="512px"><g><path d="M337.002,256.184h-12.139V214.46c0-11.028-8.972-20-20-20H193.501v-40.43  c0-0.398-0.029-0.788-0.06-1.178h53.056c8.271,0,15-6.729,15-15V30.212c0-8.271-6.729-15-15-15H110.505c-8.271,0-15,6.729-15,15  v107.64c0,8.271,6.729,15,15,15h53.056c-0.031,0.39-0.06,0.78-0.06,1.178v40.43H52.139c-11.028,0-20,8.972-20,20v41.724H20  c-11.028,0-20,8.972-20,20v45.606c0,11.028,8.972,20,20,20h54.279c11.028,0,20-8.972,20-20v-45.606c0-11.028-8.972-20-20-20h-12.14  V224.46h101.362v31.724h-12.139c-11.028,0-20,8.972-20,20v45.606c0,11.028,8.972,20,20,20h54.277c11.028,0,20-8.972,20-20v-45.606  c0-11.028-8.972-20-20-20h-12.139V224.46h101.362v31.724h-12.139c-11.028,0-20,8.972-20,20v45.606c0,11.028,8.972,20,20,20h54.277  c11.028,0,20-8.972,20-20v-45.606C357.002,265.156,348.03,256.184,337.002,256.184z M64.279,311.79H30v-25.606h34.279V311.79z   M195.64,311.79h-34.277v-25.606h34.277V311.79z M327.002,311.79h-34.277v-25.606h34.277V311.79z" data-original="#000001" class="active-path" data-old_color="#000001"/></g> </svg>
