<?xml version="1.0"?>
<svg xmlns="http://www.w3.org/2000/svg" height="512px" viewBox="0 0 512 512" width="512px" class=""><g><path d="m329.058594 121.179688c-26.40625 0-50.082032 16.761718-58.917969 41.710937-2.121094 5.992187-7.785156 9.996094-14.140625 9.996094s-12.019531-4.003907-14.140625-9.996094c-8.835937-24.949219-32.511719-41.710937-58.917969-41.710937-34.257812 0-62.324218 28.113281-62.5625 62.667968-.191406 27.191406 23.804688 60.527344 69.382813 96.402344 26.792969 21.089844 53.804687 37.195312 66.210937 44.234375 12.402344-7.09375 39.449219-23.332031 66.164063-44.476563 45.269531-35.832031 69.296875-69.152343 69.484375-96.367187.117187-16.519531-6.273438-32.113281-17.984375-43.910156-11.882813-11.960938-27.714844-18.550781-44.578125-18.550781zm0 0" data-original="#000000" class="active-path" data-old_color="#3e9892" fill="#3e9892"/><path d="m440.523438 0h-369.042969c-39.414063 0-71.480469 32.175781-71.480469 71.722656v287.660156c0 39.546876 32.066406 71.722657 71.480469 71.722657h207.714843l6.984376 67.398437c.558593 5.386719 3.957031 10.054688 8.894531 12.230469 1.933593.847656 3.984375 1.265625 6.023437 1.265625 3.179688 0 6.332032-1.011719 8.964844-2.984375l104.171875-77.910156h26.289063c39.410156 0 71.476562-32.175781 71.476562-71.722657v-287.660156c0-39.546875-32.066406-71.722656-71.476562-71.722656zm-100.117188 303.808594c-38.214844 30.1875-75.792969 50.242187-77.375 51.082031-2.199219 1.164063-4.617188 1.75-7.03125 1.75-2.402344 0-4.804688-.578125-6.992188-1.730469-1.59375-.839844-39.441406-20.894531-77.800781-51.085937-53.890625-42.417969-81.089843-82.851563-80.828125-120.183594.171875-24.710937 9.832032-47.914063 27.207032-65.335937 17.445312-17.492188 40.65625-27.125 65.359374-27.125 29.03125 0 55.832032 13.679687 73.054688 35.839843 17.222656-22.160156 44.023438-35.839843 73.058594-35.839843 24.917968 0 48.308594 9.734374 65.863281 27.414062 17.390625 17.507812 26.871094 40.683594 26.699219 65.253906-.257813 37.234375-27.582032 77.59375-81.214844 119.960938zm0 0" data-original="#000000" class="active-path" data-old_color="#3e9892" fill="#3e9892"/></g> </svg>
