<svg xmlns="http://www.w3.org/2000/svg" viewBox="0 0 100 137.2"><path fill="#D0E0E1" d="M0 12.5C0 5.6 5.6 0 12.5 0h54L100 34.1v90.7c0 6.9-6 12.5-12.9 12.5H12.5c-6.9 0-12.5-5.6-12.5-12.5V12.5z"/><g fill="#6D7577"><path d="M18.9 88.8h3.9l6.1 9.6 6.4-9.6H39l-8.1 12 8.6 12.6h-4L29 103.3l-6.8 10.2h-3.7l8.5-12.6-8.1-12.1zM45.5 88.8v21.8h13v2.8H42.2V88.8h3.3zM73.7 92.2c-1.1-.8-2.5-1.2-4.2-1.2-.7 0-1.4.1-2 .2-.7.1-1.3.4-1.8.7-.5.3-.9.8-1.2 1.3-.3.5-.5 1.2-.5 2s.2 1.4.7 1.8c.4.5 1 .9 1.8 1.2.7.3 1.6.5 2.5.7.9.2 1.9.4 2.9.6 1 .2 1.9.5 2.9.8.9.3 1.8.7 2.5 1.3.7.5 1.3 1.2 1.8 2 .4.8.7 1.8.7 3 0 1.3-.3 2.4-.9 3.4s-1.3 1.7-2.3 2.3-1.9 1-3.1 1.3c-1.1.3-2.3.4-3.4.4-1.4 0-2.7-.2-3.9-.5-1.2-.3-2.3-.9-3.2-1.6-.9-.7-1.7-1.6-2.2-2.7-.5-1.1-.8-2.4-.8-3.9h3.1c0 1 .2 1.9.6 2.7.4.7.9 1.4 1.6 1.8.7.5 1.4.8 2.3 1.1s1.8.3 2.7.3c.7 0 1.5-.1 2.2-.2.7-.1 1.4-.4 2-.7.6-.3 1.1-.8 1.4-1.4s.6-1.3.6-2.2c0-.8-.2-1.5-.7-2.1-.4-.5-1-1-1.8-1.3-.7-.3-1.6-.6-2.5-.8-.9-.2-1.9-.4-2.9-.6s-1.9-.5-2.9-.8c-.9-.3-1.8-.7-2.5-1.1-.7-.5-1.3-1.1-1.8-1.8-.4-.7-.7-1.7-.7-2.8 0-1.2.3-2.3.8-3.2.5-.9 1.2-1.7 2-2.2.8-.6 1.8-1 2.9-1.3 1.1-.3 2.2-.4 3.3-.4 1.3 0 2.4.2 3.5.4 1.1.3 2 .8 2.8 1.4.8.6 1.5 1.5 1.9 2.4s.7 2.1.8 3.5h-3.1c-.2-1.7-.8-3-1.9-3.8z"/></g><path fill="#A1AFAF" d="M66.5 0v34.1H100L66.5 0z"/></svg>