<svg xmlns="http://www.w3.org/2000/svg" viewBox="0 0 100 137.7"><path fill="#D0E0E1" d="M0 12.6C0 5.6 5.6 0 12.6 0h53.8L100 34.2v91c0 6.9-5.6 12.5-12.6 12.5H12.6c-7 0-12.6-5.7-12.6-12.6V12.6z"/><g fill="#6D7577"><path d="M8 89.1h4l6.2 9.6 6.4-9.6h3.7l-8.2 12 8.7 12.7h-4l-6.6-10.2-6.8 10.2H7.6l8.6-12.7-8.2-12zM34.7 89.1V111h13.1v2.8H31.4V89.1h3.3zM63 92.5c-1.1-.8-2.5-1.2-4.2-1.2-.7 0-1.4.1-2 .2-.7.1-1.3.4-1.8.7-.5.3-.9.8-1.2 1.3s-.5 1.2-.5 2 .2 1.4.7 1.8c.5.5 1 .9 1.8 1.2.7.3 1.6.5 2.5.7.9.2 1.9.4 2.9.6 1 .2 1.9.5 2.9.8s1.8.7 2.5 1.3c.7.5 1.3 1.2 1.8 2 .4.8.7 1.8.7 3 0 1.3-.3 2.4-.9 3.4s-1.3 1.7-2.3 2.3-2 1-3.1 1.3c-1.1.3-2.3.4-3.4.4-1.4 0-2.7-.2-3.9-.5-1.2-.3-2.3-.9-3.3-1.6-.9-.7-1.7-1.6-2.2-2.7s-.8-2.4-.8-3.9h3.1c0 1 .2 1.9.6 2.7.4.8.9 1.4 1.6 1.9.7.5 1.4.8 2.3 1.1.9.2 1.8.3 2.7.3.7 0 1.5-.1 2.2-.2.7-.1 1.4-.4 2-.7.6-.3 1.1-.8 1.5-1.4.4-.6.6-1.3.6-2.2 0-.9-.2-1.5-.7-2.1s-1-1-1.8-1.3-1.6-.6-2.5-.8c-.9-.2-1.9-.4-2.9-.6-1-.2-1.9-.5-2.9-.8s-1.8-.7-2.5-1.1c-.8-.5-1.3-1.1-1.8-1.8s-.7-1.7-.7-2.8c0-1.2.3-2.3.8-3.2.5-.9 1.2-1.7 2-2.2s1.8-1 2.9-1.3c1.1-.3 2.2-.4 3.3-.4 1.3 0 2.4.2 3.5.4 1.1.3 2 .8 2.9 1.4.8.6 1.5 1.5 1.9 2.4.5 1 .7 2.1.8 3.5H65c-.3-1.8-.9-3.1-2-3.9zM70.8 89.1h3.9l6.2 9.6 6.4-9.6H91l-8.2 12 8.7 12.7h-4l-6.6-10.2-6.9 10.2h-3.7l8.6-12.7-8.1-12z"/></g><path fill="#A1AFAF" d="M66.4 0v34.2H100L66.4 0z"/></svg>